<?xml version="1.0" standalone="no"?>
<!DOCTYPE svg PUBLIC "-//W3C//DTD SVG 20010904//EN"
 "http://www.w3.org/TR/2001/REC-SVG-20010904/DTD/svg10.dtd">
<svg version="1.0" xmlns="http://www.w3.org/2000/svg"
 width="2800.000000pt" height="2800.000000pt" viewBox="0 0 2800.000000 2800.000000"
 preserveAspectRatio="xMidYMid meet">

<g transform="translate(0.000000,2800.000000) scale(0.100000,-0.100000)"
fill="#000000" stroke="none">
<path d="M14120 20696 c-117 -21 -265 -64 -336 -98 -81 -39 -134 -87 -179
-162 -40 -69 -59 -127 -90 -291 -13 -66 -36 -172 -50 -235 -58 -253 -17 -418
151 -599 l74 -80 -11 -48 c-16 -70 -3 -152 43 -278 56 -149 58 -190 18 -350
-52 -209 -40 -287 61 -386 53 -52 125 -99 116 -76 -13 35 -18 106 -8 146 8 38
6 56 -15 118 -19 56 -27 110 -35 226 -19 292 -25 337 -73 506 -25 90 -49 185
-52 212 -6 44 -5 49 13 49 27 0 127 77 199 152 34 36 85 78 115 95 122 68 180
103 284 174 225 153 298 156 470 15 128 -105 187 -146 294 -204 152 -82 207
-139 277 -288 77 -165 134 -237 203 -259 20 -6 32 2 85 60 61 65 64 67 137 81
143 27 189 17 252 -56 67 -79 95 -198 67 -287 -35 -107 -163 -295 -225 -329
-19 -10 -19 -12 7 -70 41 -91 51 -145 46 -247 -3 -68 -10 -103 -25 -133 -32
-61 -98 -83 -143 -46 l-22 18 35 0 c47 0 64 16 82 77 20 69 19 153 -4 236 -20
73 -40 111 -80 151 -24 24 -24 25 -19 3 5 -19 0 -24 -30 -33 -21 -5 -43 -10
-51 -10 -11 0 -13 -16 -8 -82 4 -46 13 -108 22 -138 29 -106 -6 -116 -45 -12
-17 44 -20 73 -18 144 2 70 0 87 -10 83 -8 -3 -16 -5 -18 -5 -2 0 -4 -5 -4
-11 0 -16 -104 -152 -207 -269 -35 -39 -41 -60 -20 -60 8 0 7 -4 -3 -11 -12
-9 -11 -10 7 -6 18 4 22 -1 29 -42 4 -25 6 -126 5 -225 l-2 -178 116 7 c91 6
138 4 225 -11 181 -30 224 -18 520 153 106 61 153 80 315 128 198 59 345 166
410 299 38 77 61 162 94 351 47 269 27 350 -150 590 -36 50 -117 166 -179 259
-142 211 -210 284 -378 403 -173 123 -239 178 -402 338 -163 160 -233 216
-322 261 -70 35 -200 77 -278 89 -189 28 -254 37 -395 49 -158 15 -197 24
-385 86 -190 62 -358 81 -500 56z m347 -432 c36 -7 69 -33 77 -61 10 -33 -36
-53 -122 -53 -79 0 -122 23 -122 65 0 46 74 68 167 49z m324 -121 c-12 -21
-31 -59 -43 -85 -11 -26 -27 -49 -36 -53 -18 -7 -52 27 -52 52 0 8 29 44 65
81 50 51 68 63 77 54 9 -9 7 -21 -11 -49z m442 -157 c66 -32 120 -94 136 -154
7 -29 11 -56 8 -59 -18 -17 -96 -14 -138 6 -55 26 -199 144 -217 177 -12 23
-11 26 20 39 43 20 141 15 191 -9z m1477 -874 c47 -48 110 -107 140 -132 71
-58 90 -79 90 -101 0 -57 -238 -40 -355 26 -94 53 -118 119 -73 207 58 116 86
116 198 0z"/>
<path d="M14500 19399 c-25 -5 -53 -18 -62 -30 -26 -31 -34 -88 -17 -118 13
-22 23 -26 70 -29 31 -2 154 6 274 17 226 21 255 29 255 71 0 22 -12 27 -119
45 -47 8 -115 21 -151 29 -89 19 -196 25 -250 15z"/>
<path d="M13855 19326 c-55 -33 -89 -94 -77 -138 10 -39 27 -43 149 -33 107 9
118 17 118 94 -1 82 -19 101 -94 101 -41 0 -67 -7 -96 -24z"/>
<path d="M14710 18973 c-30 -11 -60 -48 -71 -85 -13 -52 6 -154 36 -184 34
-34 122 -48 203 -34 82 14 95 24 87 64 -17 86 -21 91 -68 88 -39 -3 -47 0 -70
28 -28 33 -33 59 -17 90 8 15 5 20 -22 29 -33 12 -54 13 -78 4z"/>
<path d="M13928 18945 c-25 -14 -26 -18 -21 -70 4 -41 2 -60 -11 -80 -9 -14
-22 -23 -28 -19 -18 11 0 -64 29 -125 l26 -53 61 4 c38 3 84 15 124 32 62 29
62 29 62 71 0 23 -7 62 -15 86 -9 23 -12 45 -7 48 8 6 -22 41 -35 41 -5 1 -17
8 -28 18 -20 17 -43 28 -98 51 -33 13 -26 14 -59 -4z"/>
<path d="M14611 18799 c-1 -14 6 -34 15 -45 8 -10 12 -13 8 -5 -4 8 -11 28
-15 45 -6 29 -7 29 -8 5z"/>
<path d="M14582 18290 c-44 -36 -212 -72 -297 -63 -38 4 -58 13 -82 36 -57 54
-36 15 30 -54 72 -77 92 -89 144 -89 44 0 108 43 85 58 -9 6 -6 12 13 20 21
10 25 10 19 0 -6 -11 26 12 46 32 16 16 71 50 80 50 13 0 8 22 -6 27 -5 1 -19
-6 -32 -17z"/>
<path d="M13956 18203 c-22 -22 8 -125 53 -181 49 -63 154 -105 208 -85 21 8
19 11 -33 53 -31 25 -94 84 -139 132 -45 48 -85 85 -89 81z"/>
<path d="M15081 17904 c-41 -25 -128 -73 -195 -106 -67 -33 -122 -62 -124 -63
-1 -1 2 -23 7 -50 12 -66 36 -76 83 -36 10 9 21 15 23 13 21 -11 212 189 200
209 -3 3 16 21 40 38 38 27 53 42 43 41 -2 0 -36 -21 -77 -46z"/>
<path d="M14211 17891 l-54 -6 28 -35 c130 -161 218 -200 447 -200 l108 0 0
44 c0 37 -3 44 -17 40 -48 -10 -110 -11 -126 -2 -12 6 -23 6 -31 -1 -13 -11
-55 -3 -95 18 -12 7 -56 43 -98 82 -42 38 -83 68 -92 67 -9 -1 -40 -4 -70 -7z"/>
<path d="M11563 16478 c-5 -7 -15 -47 -22 -88 -15 -89 -64 -193 -106 -224 -16
-12 -66 -31 -110 -41 -44 -10 -99 -26 -121 -36 -49 -20 -128 -69 -122 -74 2
-3 28 2 58 10 108 28 285 38 580 31 157 -3 319 -10 360 -15 41 -5 158 -6 260
-2 l185 6 -99 8 c-60 5 -117 15 -142 26 -24 11 -69 25 -101 31 -32 7 -66 17
-76 22 -11 5 -32 11 -48 13 -25 4 -80 30 -179 88 -54 31 -98 76 -151 154 -27
39 -59 79 -71 87 -27 19 -82 21 -95 4z"/>
<path d="M10660 16279 c-52 -11 -201 -56 -330 -101 -265 -90 -514 -168 -537
-168 -9 0 -14 -3 -11 -6 8 -8 178 27 448 91 313 75 395 88 540 89 109 0 131
-3 175 -22 63 -29 83 -47 107 -97 l19 -40 -4 72 c-3 57 -10 82 -30 112 -56 85
-192 110 -377 70z"/>
<path d="M10560 16129 c-145 -23 -250 -42 -246 -46 2 -2 71 5 152 17 272 39
470 27 550 -31 27 -20 27 -19 -3 9 -49 47 -115 62 -267 61 -72 -1 -156 -5
-186 -10z"/>
<path d="M10263 16073 c9 -2 23 -2 30 0 6 3 -1 5 -18 5 -16 0 -22 -2 -12 -5z"/>
<path d="M10218 16063 c7 -3 16 -2 19 1 4 3 -2 6 -13 5 -11 0 -14 -3 -6 -6z"/>
<path d="M11963 16033 c9 -2 23 -2 30 0 6 3 -1 5 -18 5 -16 0 -22 -2 -12 -5z"/>
<path d="M10500 16016 c-58 -8 -231 -34 -385 -60 -269 -44 -407 -63 -487 -68
-21 -1 -38 -5 -38 -9 0 -5 230 -169 474 -339 28 -19 132 -92 231 -162 954
-673 1071 -754 1077 -744 15 25 60 288 65 376 5 87 3 103 -22 170 -21 56 -29
100 -32 175 -3 55 -11 111 -18 125 -7 14 -15 43 -19 65 l-6 40 20 -24 c11 -13
20 -34 20 -47 0 -42 57 -142 82 -146 17 -2 22 -9 20 -25 -3 -21 -1 -22 22 -13
61 23 104 52 151 100 70 73 143 130 167 130 23 0 44 -19 49 -44 4 -17 -27 -54
-156 -186 -53 -55 -99 -126 -89 -141 8 -13 92 0 136 21 23 11 46 20 50 20 5 0
38 23 73 50 35 28 69 50 74 50 5 0 16 8 23 18 27 36 112 92 140 92 15 0 28 -4
28 -10 0 -5 7 -10 15 -10 8 0 15 -3 15 -8 0 -15 -73 -86 -211 -206 -20 -17
-69 -53 -108 -81 -39 -27 -71 -55 -71 -62 0 -8 -11 -19 -25 -25 -23 -10 -23
-12 -7 -24 25 -20 54 -16 78 9 12 12 42 28 68 35 25 6 66 24 90 39 50 32 206
175 206 190 0 11 80 53 103 53 23 0 33 -41 13 -52 -9 -5 -21 -15 -26 -21 -5
-7 -26 -32 -46 -57 -20 -25 -42 -45 -48 -45 -6 0 -25 -20 -42 -46 -26 -37 -48
-53 -119 -87 -47 -23 -91 -42 -98 -42 -7 0 -20 -7 -29 -14 -18 -14 -24 -27
-10 -25 22 4 52 -2 52 -10 0 -5 -26 -13 -57 -17 l-58 -8 37 -10 c30 -9 15 -11
-90 -10 -81 1 -144 7 -173 16 l-46 15 10 -31 c5 -17 14 -39 19 -50 5 -10 12
-46 14 -80 3 -33 8 -68 12 -76 14 -34 18 -198 5 -211 -12 -12 -6 -118 8 -135
5 -7 3 -22 -6 -40 -7 -16 -16 -45 -18 -65 -2 -20 -8 -42 -13 -50 -5 -8 -10
-25 -11 -39 -6 -70 -11 -93 -23 -100 -7 -4 -10 -12 -7 -17 3 -5 0 -21 -7 -35
-8 -14 -10 -31 -6 -38 5 -7 3 -21 -3 -31 -8 -13 -13 -15 -19 -6 -14 22 -9 -29
7 -67 15 -35 12 -42 -17 -37 -5 0 -8 -7 -8 -17 0 -10 -3 -22 -7 -26 -8 -8 -9
-13 -11 -59 -2 -19 -10 -31 -27 -39 -30 -14 -35 -61 -7 -77 9 -6 13 -11 7 -11
-5 0 -3 -5 5 -10 12 -8 12 -10 -5 -10 -35 -1 6 -20 43 -20 17 0 32 -5 32 -11
0 -16 99 -5 165 17 68 23 109 54 114 84 1 14 6 27 10 30 22 15 47 129 65 300
2 19 9 62 15 95 6 33 9 101 7 150 -3 59 1 104 10 130 8 22 14 77 14 123 0 57
4 84 13 87 6 3 102 16 212 31 241 31 538 44 550 23 5 -7 4 -14 -3 -17 -7 -2
-12 -10 -12 -18 0 -9 -4 -13 -9 -10 -5 4 -22 -7 -38 -23 -29 -30 -39 -51 -25
-51 14 0 53 46 45 53 -3 4 0 7 8 7 8 0 30 16 48 36 44 44 59 41 157 -31 l73
-55 363 -4 c200 -3 431 -8 513 -11 237 -10 740 -23 744 -19 5 5 61 -39 -409
319 -223 170 -450 343 -505 385 -214 163 -786 598 -895 681 l-115 87 -715 -8
c-393 -5 -760 -12 -816 -16 l-101 -7 -23 38 c-38 61 -89 78 -250 81 -74 2
-182 -3 -240 -10z m804 -372 c9 -8 16 -20 16 -25 0 -5 -9 0 -20 11 -19 19 -25
30 -16 30 3 0 12 -7 20 -16z m1276 -548 c0 -16 -8 -27 -27 -34 -45 -18 -174
-50 -230 -58 -29 -3 -53 -10 -53 -14 0 -4 -7 -11 -16 -14 -14 -5 -15 -4 -4 9
13 15 8 19 -22 16 -10 -1 -18 3 -18 8 0 6 7 11 16 11 8 0 22 7 30 15 9 8 33
15 53 15 21 0 44 6 51 14 6 8 37 20 68 27 31 7 64 16 72 20 8 5 30 9 48 9 27
0 32 -4 32 -24z m-605 -156 c3 -5 1 -10 -4 -10 -6 0 -11 5 -11 10 0 6 2 10 4
10 3 0 8 -4 11 -10z"/>
<path d="M11368 16023 c50 -2 134 -2 185 0 50 1 9 3 -93 3 -102 0 -143 -2 -92
-3z"/>
<path d="M16370 15660 c-15 -5 4 -7 50 -3 96 6 200 -15 281 -58 64 -34 91 -65
114 -126 l14 -38 0 37 c2 67 -84 140 -210 179 -64 20 -201 25 -249 9z"/>
<path d="M16069 15478 c-47 -52 -89 -144 -89 -197 0 -61 55 -151 82 -135 4 3
7 66 6 142 -2 124 0 141 20 180 27 50 21 53 -19 10z"/>
<path d="M14604 14485 c-7 -18 10 -36 70 -70 28 -16 27 -13 -14 31 -25 27 -46
50 -47 53 -2 2 -6 -4 -9 -14z"/>
<path d="M12515 14415 c-22 -25 -45 -45 -52 -45 -7 0 -13 -5 -13 -11 0 -6 -30
-39 -67 -73 -84 -76 -113 -106 -113 -117 0 -5 -5 -9 -11 -9 -16 0 -39 -26 -39
-45 0 -8 -11 -20 -25 -25 -14 -5 -25 -14 -25 -20 0 -5 -7 -10 -15 -10 -8 0
-15 -5 -15 -11 0 -6 -38 -48 -84 -93 -76 -74 -125 -140 -112 -153 7 -8 136
130 136 146 0 8 3 11 7 8 9 -9 163 144 157 155 -3 5 0 7 7 6 7 -2 18 7 24 20
5 12 15 22 21 22 6 0 34 25 63 55 29 30 50 55 46 55 -3 0 0 6 7 14 7 8 17 11
22 8 5 -3 6 -1 3 5 -4 5 5 20 18 31 14 12 25 26 25 32 0 5 6 10 14 10 8 0 18
9 21 21 4 11 19 25 33 30 19 8 23 12 13 18 -11 7 -11 10 0 14 8 3 10 6 4 6 -5
1 -28 -19 -50 -44z m-155 -190 c-14 -17 -30 -20 -30 -6 0 5 8 12 18 14 9 3 19
5 21 6 2 0 -2 -6 -9 -14z m-330 -330 c-26 -28 -42 -33 -34 -10 4 8 12 15 20
15 8 0 14 5 14 10 0 6 5 10 12 10 6 0 1 -11 -12 -25z"/>
<path d="M14725 14385 c11 -9 34 -23 50 -31 28 -14 29 -14 10 1 -11 9 -33 23
-50 31 -28 14 -29 14 -10 -1z"/>
<path d="M14960 14236 c28 -26 228 -127 234 -117 3 5 -6 12 -20 15 -14 4 -44
19 -67 33 -59 37 -144 83 -153 83 -5 0 -2 -6 6 -14z"/>
<path d="M15221 14110 c-9 -5 -2 -14 21 -28 47 -29 207 -102 224 -102 8 0 14
-4 14 -9 0 -7 57 -34 68 -31 1 0 10 -6 18 -15 9 -8 25 -15 36 -15 12 0 30 -7
40 -17 17 -15 18 -15 18 1 0 14 -33 34 -66 40 -7 1 -19 8 -27 15 -9 7 -23 14
-32 15 -9 1 -24 9 -34 18 -30 25 -113 64 -154 72 -20 4 -37 11 -37 16 0 6 -8
10 -18 10 -10 0 -27 9 -39 19 -11 11 -25 16 -32 11z"/>
<path d="M15718 13858 c-10 -7 -10 -9 2 -5 8 2 21 -3 29 -10 7 -8 20 -12 28
-9 7 3 16 -1 19 -9 3 -7 12 -11 20 -8 8 3 14 0 14 -7 0 -6 5 -8 11 -4 6 3 15
1 19 -7 7 -10 13 -10 32 -1 l23 12 -25 -6 c-23 -6 -24 -6 -10 11 11 14 11 17
2 11 -8 -5 -24 -4 -35 2 -49 23 -116 39 -129 30z"/>
<path d="M15905 13780 c3 -5 10 -10 16 -10 5 0 9 5 9 10 0 6 -7 10 -16 10 -8
0 -12 -4 -9 -10z"/>
<path d="M11457 13725 c-4 -11 -10 -27 -13 -35 -5 -12 -3 -12 11 1 9 9 15 25
13 35 -4 18 -4 18 -11 -1z"/>
<path d="M16106 13722 c-2 -4 4 -8 14 -8 10 0 16 4 14 8 -3 4 -9 8 -14 8 -5 0
-11 -4 -14 -8z"/>
<path d="M16260 13660 c0 -5 7 -7 15 -4 8 4 15 8 15 10 0 2 -7 4 -15 4 -8 0
-15 -4 -15 -10z"/>
<path d="M14070 13497 c0 -58 34 -275 46 -294 21 -34 -15 -151 -93 -305 -51
-102 -75 -137 -119 -177 -98 -90 -252 -200 -337 -240 -96 -46 -170 -63 -362
-86 -333 -39 -606 -95 -1070 -221 -601 -163 -917 -312 -1250 -590 -353 -295
-530 -563 -625 -944 -55 -219 -78 -380 -160 -1125 -62 -564 -117 -1021 -132
-1097 -8 -43 -15 -58 -27 -58 -10 0 -91 11 -182 25 -157 24 -251 41 -584 105
-143 27 -222 41 -345 60 -30 5 -104 19 -165 31 -123 23 -111 21 -435 77 -203
36 -372 66 -485 86 -16 3 -88 15 -160 26 -71 12 -141 23 -155 25 -14 2 -81 13
-150 24 -274 45 -354 59 -395 71 -16 4 -70 14 -120 20 -49 6 -103 15 -120 20
-16 5 -55 12 -85 15 -30 4 -75 11 -100 16 -25 5 -70 13 -100 18 -30 5 -91 17
-135 26 -44 9 -125 23 -180 31 -55 9 -120 19 -145 23 -25 5 -97 18 -160 29
-63 11 -141 23 -173 27 -32 3 -64 8 -70 11 -31 12 -203 32 -288 33 -102 2
-129 -3 -129 -25 0 -14 41 -28 140 -46 l65 -12 -64 -13 c-76 -15 -82 -19 -50
-32 40 -15 425 -88 639 -122 36 -5 90 -14 120 -19 30 -5 168 -28 305 -50 473
-75 1057 -172 1180 -194 108 -20 349 -82 372 -95 17 -10 16 -10 -4 -11 -43 0
-32 -19 14 -25 27 -3 84 -13 128 -21 44 -9 109 -20 145 -25 87 -10 461 -66
530 -78 30 -5 96 -15 145 -21 50 -6 158 -22 240 -35 83 -13 269 -43 415 -65
146 -22 278 -45 294 -50 16 -5 76 -17 134 -27 l104 -18 -6 -80 c-14 -164 -119
-800 -168 -1017 -21 -93 -23 -97 -53 -103 -47 -11 -294 -3 -314 10 -4 2 -74 9
-157 15 -82 6 -176 15 -209 20 -34 6 -103 14 -155 20 -52 5 -111 12 -130 15
-19 2 -116 16 -215 29 -99 14 -200 27 -225 30 -191 22 -237 27 -250 32 -8 3
-31 7 -50 10 -19 2 -96 14 -170 25 -74 11 -171 24 -215 29 -44 5 -109 14 -145
20 -36 6 -130 19 -210 30 -80 12 -161 23 -180 26 -54 8 -100 15 -150 20 -98
10 -208 26 -265 38 -55 13 -147 26 -295 42 -30 4 -58 8 -61 10 -4 2 -31 6 -60
10 -30 3 -92 12 -139 20 -47 8 -123 19 -170 24 -47 6 -125 17 -175 25 -49 8
-153 23 -230 34 -304 43 -641 91 -666 97 -25 5 -27 3 -32 -43 -3 -26 -12 -91
-21 -143 -35 -225 -41 -400 -21 -683 6 -88 53 -344 76 -419 32 -100 62 -130
169 -169 73 -26 88 -34 79 -45 -6 -8 -15 -11 -20 -8 -5 3 -9 0 -9 -5 0 -6 -6
-11 -14 -11 -30 0 -25 -19 11 -41 21 -13 41 -27 44 -32 4 -5 8 -4 11 3 2 7 14
4 33 -12 17 -12 24 -15 17 -6 -12 15 -11 16 20 5 18 -7 39 -19 46 -27 10 -13
11 -12 6 5 -5 19 -5 19 9 3 8 -10 20 -18 26 -18 7 0 9 -5 5 -12 -4 -7 2 -4 14
6 12 11 22 14 22 8 0 -6 -4 -14 -10 -17 -6 -3 -10 -12 -10 -18 0 -7 5 -4 11 6
6 9 15 14 21 11 7 -4 8 -2 4 4 -5 8 -2 10 8 6 9 -3 16 -10 16 -15 0 -5 6 -9
14 -9 8 0 17 -6 19 -12 3 -7 6 -4 6 6 1 19 1 19 20 0 10 -10 16 -23 13 -28 -3
-5 0 -6 7 -2 8 5 9 12 2 20 -7 8 -5 12 9 12 10 0 16 -4 14 -8 -3 -4 0 -8 5 -8
6 0 11 -7 11 -16 0 -8 5 -12 10 -9 6 4 8 11 4 16 -7 12 19 7 28 -5 4 -6 13 -4
22 4 14 11 16 11 11 -2 -7 -18 20 -44 30 -28 3 5 3 16 -1 23 -5 8 -2 7 10 -2
11 -9 13 -17 6 -21 -7 -4 -5 -12 6 -21 10 -8 15 -9 11 -3 -4 7 1 15 10 19 10
3 19 1 21 -4 2 -6 15 -11 28 -11 14 0 22 -4 19 -10 -3 -5 -1 -10 4 -10 6 0 11
8 11 18 1 16 1 16 11 -1 7 -12 15 -15 27 -8 23 12 57 -10 40 -27 -9 -9 -7 -12
8 -12 12 0 24 3 28 7 10 11 37 12 30 2 -3 -5 6 -10 20 -10 35 -2 36 -2 74 -22
18 -10 37 -15 42 -12 6 3 10 2 10 -4 0 -6 7 -8 15 -5 8 4 22 1 29 -5 9 -8 15
-8 18 -2 2 6 16 4 35 -6 18 -8 31 -19 28 -23 -3 -4 3 -7 13 -6 9 0 20 8 24 16
5 11 7 9 7 -7 1 -25 21 -43 21 -19 0 20 10 20 24 0 7 -9 28 -16 48 -17 20 0
35 -4 32 -8 -2 -4 3 -12 11 -19 13 -11 14 -10 8 5 -5 15 -3 17 13 10 10 -4 29
-8 42 -8 17 -1 22 -7 22 -26 0 -15 4 -21 8 -15 6 9 44 11 89 6 7 -1 10 -10 7
-19 -4 -11 -3 -14 3 -7 10 13 43 26 43 16 0 -4 14 -15 30 -24 17 -10 30 -13
30 -6 0 6 7 7 18 3 9 -4 23 -8 30 -8 6 0 12 -3 12 -7 0 -4 11 -6 25 -5 14 2
25 -1 25 -6 0 -5 9 -9 19 -9 11 0 22 -4 25 -8 3 -5 19 -8 35 -7 17 1 28 -2 25
-7 -3 -4 7 -9 23 -10 40 -2 47 -3 58 -9 6 -4 23 -9 38 -13 15 -4 25 -11 22
-17 -4 -6 3 -8 19 -5 16 3 26 0 26 -7 0 -8 3 -8 11 0 9 9 18 7 37 -5 15 -9 27
-16 29 -14 4 3 52 -7 73 -16 8 -3 20 -6 25 -7 6 0 16 -4 24 -9 11 -7 12 -6 6
5 -7 11 -5 11 11 -1 10 -8 24 -21 30 -29 8 -11 13 -11 18 -2 6 9 12 7 22 -6
13 -17 14 -17 8 0 -5 14 -2 16 12 11 11 -4 25 -11 31 -17 7 -5 24 -7 38 -5 18
4 25 1 25 -11 0 -12 11 -16 43 -17 24 -1 57 -9 75 -18 23 -12 32 -13 36 -3 4
6 4 1 2 -11 -4 -23 -4 -23 15 -6 10 9 22 14 26 11 3 -4 0 -7 -8 -8 -12 -1 20
-11 68 -22 7 -2 16 -6 19 -10 4 -4 18 -7 31 -7 12 0 23 -6 23 -12 0 -10 3 -9
9 1 6 9 11 10 15 2 4 -6 12 -9 17 -6 5 4 9 1 9 -6 0 -7 3 -9 7 -6 3 4 12 -1
20 -11 8 -9 12 -11 8 -4 -4 8 1 12 15 12 12 0 18 -4 15 -10 -8 -13 18 -8 27 5
4 6 8 2 8 -8 0 -14 5 -17 21 -12 14 5 19 4 15 -4 -5 -7 -1 -9 8 -5 9 3 16 2
16 -4 0 -6 9 -8 20 -5 15 4 20 0 21 -13 0 -11 3 -14 6 -6 6 14 33 16 33 2 0
-6 3 -9 8 -9 19 3 33 -2 27 -11 -3 -6 -1 -10 4 -10 6 0 11 5 11 10 0 6 7 10
16 10 10 0 14 -6 11 -15 -5 -11 -1 -12 18 -5 17 6 25 6 25 -1 0 -6 4 -8 9 -4
5 3 12 1 16 -5 3 -5 16 -8 28 -6 12 2 31 -3 42 -10 20 -13 24 -14 46 -14 5 0
7 -5 3 -12 -4 -7 -3 -8 5 -4 6 4 18 2 26 -4 8 -6 19 -9 25 -5 6 4 17 1 25 -5
8 -7 28 -10 44 -8 17 2 28 1 25 -4 -3 -4 2 -8 11 -8 9 0 14 -4 11 -9 -3 -5 1
-12 10 -15 8 -3 12 -2 9 4 -9 15 0 12 41 -11 34 -18 36 -19 30 -2 -6 14 -5 16
5 6 7 -7 19 -13 27 -13 8 0 28 -10 45 -22 17 -12 27 -17 24 -11 -4 7 -3 14 2
18 5 3 14 -3 20 -12 6 -10 11 -14 11 -9 0 6 7 1 16 -10 8 -10 12 -13 8 -5 -5
11 -2 13 17 8 13 -4 28 -7 33 -7 4 0 5 -7 2 -16 -5 -12 -3 -14 6 -7 14 10 57
11 73 1 6 -3 58 -7 115 -8 137 -2 133 -1 146 -11 31 -25 104 -57 109 -49 8 13
45 13 45 1 0 -6 -5 -13 -10 -16 -6 -4 11 -30 40 -62 79 -87 108 -156 76 -182
-11 -10 -29 4 -93 67 -89 89 -162 137 -193 127 -14 -5 -20 -2 -20 10 0 8 -12
20 -26 25 -38 15 -142 12 -177 -5 -37 -17 -58 -55 -45 -78 6 -11 3 -17 -12
-22 -11 -3 -24 -4 -29 0 -5 3 -12 1 -15 -3 -3 -5 18 -12 47 -15 82 -10 139
-34 204 -86 l60 -48 26 19 c16 12 28 15 32 8 9 -15 -3 -30 -26 -30 -10 0 -19
-3 -19 -6 0 -3 18 -31 40 -61 42 -59 50 -93 25 -113 -12 -10 -29 1 -101 69
-76 70 -88 78 -101 66 -8 -8 -19 -15 -24 -15 -13 0 -11 27 3 36 15 10 -83 58
-150 74 -96 22 -121 13 -213 -82 -76 -78 -131 -158 -110 -158 6 0 22 12 37 28
18 18 25 21 21 9 -5 -14 -3 -16 11 -8 25 13 118 17 134 5 27 -21 104 -43 126
-37 19 5 23 2 21 -13 -1 -11 16 -38 43 -65 25 -26 61 -72 79 -103 19 -31 39
-56 45 -56 20 0 38 -29 26 -43 -7 -9 -5 -29 10 -72 12 -36 22 -100 25 -157 6
-94 7 -98 29 -98 12 0 25 4 28 9 3 4 25 11 49 13 73 8 317 89 317 105 0 9 7
12 18 9 28 -9 175 61 168 79 -7 19 3 47 15 39 5 -3 9 -14 9 -25 0 -18 2 -18
28 -5 15 7 81 30 147 51 66 20 122 41 123 46 2 5 13 9 25 9 12 0 63 9 112 21
l91 22 12 87 c16 116 43 200 94 288 24 41 50 86 58 100 8 15 35 47 59 72 24
25 57 64 73 87 16 24 30 43 32 43 11 0 -47 -91 -77 -123 -104 -108 -231 -337
-187 -337 18 0 10 -32 -9 -37 -15 -4 -22 -20 -30 -67 -18 -104 -17 -108 27
-100 46 8 205 56 253 77 20 8 46 27 58 43 21 27 24 28 36 11 11 -15 10 -25 -2
-57 -22 -56 -92 -85 -388 -160 -260 -66 -410 -117 -577 -196 -345 -164 -717
-251 -1118 -261 -234 -6 -361 9 -438 52 -52 29 -52 29 -52 11 0 -31 43 -66
108 -87 56 -18 98 -23 259 -27 211 -5 350 6 561 43 264 47 454 108 681 216
147 71 326 132 552 189 262 66 409 117 409 142 0 5 6 3 14 -4 9 -9 10 -15 3
-20 -7 -4 -6 -12 4 -24 9 -11 9 -15 2 -10 -9 5 -13 -2 -14 -26 -4 -75 -8 -100
-21 -115 -28 -34 -143 -74 -393 -137 -222 -56 -429 -128 -570 -198 -395 -198
-756 -275 -1215 -262 -162 5 -218 11 -272 30 -33 11 -38 11 -38 -1 0 -8 9 -15
20 -15 12 0 20 -7 20 -16 0 -14 -2 -15 -17 -3 -16 13 -17 12 -4 -4 8 -10 21
-15 30 -12 8 3 12 3 9 -1 -12 -11 12 -46 27 -40 8 3 17 1 20 -5 4 -5 10 -7 15
-4 4 3 6 -5 3 -17 -4 -22 -4 -22 8 -3 6 11 13 22 15 24 2 2 15 -6 31 -16 15
-11 34 -18 41 -16 6 3 12 1 12 -4 0 -4 13 -8 29 -8 16 0 27 3 24 8 -6 10 5 9
28 -4 14 -7 24 -7 33 0 7 6 16 8 20 4 12 -13 48 -14 40 -1 -5 7 -3 8 6 3 18
-11 89 -14 95 -4 3 4 16 5 28 1 27 -9 64 -7 97 5 14 6 40 9 58 8 24 -1 31 2
28 12 -4 9 -2 11 7 6 15 -9 107 -5 122 6 5 4 31 7 57 7 25 -1 44 2 41 7 -2 4
-10 4 -16 1 -7 -4 -9 -3 -4 1 4 5 24 8 45 8 20 0 42 3 47 7 6 4 20 6 33 5 12
-1 22 2 22 6 0 4 14 12 31 18 40 14 42 14 33 -2 -6 -9 -4 -9 7 1 7 6 19 12 27
12 8 0 21 8 29 18 8 9 12 12 9 6 -3 -7 1 -14 9 -17 9 -4 12 -1 8 9 -3 9 2 14
16 15 34 2 39 4 48 13 5 5 2 6 -6 1 -10 -6 -12 -4 -7 4 5 8 12 9 20 2 8 -7 17
-6 26 1 12 8 12 9 -3 4 -11 -4 -16 -2 -12 5 4 5 14 9 24 7 9 -2 30 5 45 15 15
10 34 16 42 13 8 -3 14 -1 14 5 0 6 7 9 15 5 8 -3 19 3 25 14 10 19 45 36 67
32 6 -2 15 3 19 9 5 8 3 9 -6 4 -9 -5 -11 -4 -6 4 4 6 13 10 19 9 7 -1 25 1
41 6 24 6 27 9 15 17 -10 7 -6 8 14 3 16 -4 27 -2 27 5 0 6 7 8 17 4 12 -5 14
-3 8 8 -6 11 -5 11 5 2 10 -9 17 -7 34 8 12 12 30 19 43 16 12 -2 24 2 27 9 3
7 16 11 31 10 14 -2 28 0 30 4 3 5 23 11 45 15 22 4 38 10 36 13 -2 4 9 8 25
9 54 4 69 7 69 14 0 4 8 6 18 4 9 -1 26 2 37 8 11 6 26 10 34 8 7 -1 20 1 30
5 9 4 19 8 24 9 4 2 10 4 15 5 4 1 17 1 30 0 12 -1 22 3 22 8 0 5 12 12 28 15
52 10 74 16 86 26 6 5 30 11 54 13 23 3 45 8 49 13 5 4 2 5 -4 1 -7 -4 -13 -3
-13 2 0 8 24 20 52 26 3 0 10 5 15 10 4 5 3 6 -4 3 -8 -5 -11 5 -10 32 1 22 4
39 7 39 3 0 12 0 20 1 13 1 13 2 0 11 -13 8 -12 10 5 11 11 1 22 1 25 1 3 0 6
12 6 26 4 81 7 89 34 87 14 -1 31 5 39 12 15 16 37 12 33 -6 -1 -6 2 -11 8
-11 14 0 13 13 -2 28 -9 9 -9 12 2 12 7 0 11 3 8 6 -4 3 0 21 8 40 13 31 13
35 -1 41 -9 3 -21 1 -28 -6 -8 -8 -6 -11 8 -11 18 0 18 0 -1 -15 -19 -15 -19
-15 1 -9 l20 7 -20 -16 c-23 -18 -45 -22 -45 -7 0 5 7 6 17 3 12 -5 14 -3 8 8
-12 18 -14 49 -3 43 4 -3 8 0 8 7 0 7 10 9 25 7 14 -3 25 -1 25 6 0 6 5 4 10
-4 5 -8 10 -10 10 -5 0 6 7 2 14 -7 7 -10 22 -16 34 -13 14 2 19 -1 16 -10 -3
-8 -13 -11 -22 -8 -11 5 -14 2 -10 -9 4 -9 3 -20 0 -25 -4 -5 5 3 20 18 14 15
30 24 35 21 4 -4 -1 3 -11 15 -10 13 -22 20 -26 18 -4 -3 -10 2 -14 10 -3 8
-1 17 4 20 6 4 10 1 10 -5 0 -7 7 -10 15 -6 8 3 15 0 15 -6 0 -6 7 -19 16 -29
15 -16 14 -19 -14 -33 -16 -8 -32 -22 -35 -31 -9 -22 6 -19 21 5 7 11 19 20
27 20 8 0 15 4 15 10 0 5 7 7 15 4 10 -4 15 0 15 12 0 15 -2 16 -9 5 -7 -11
-11 -10 -20 6 -5 11 -7 24 -3 28 4 5 1 5 -5 1 -7 -4 -13 -2 -13 3 0 14 13 14
27 0 7 -7 12 -6 16 5 4 10 1 16 -8 17 -28 3 -33 4 -40 11 -4 3 1 5 12 4 10 -2
24 1 31 7 7 5 15 7 19 3 3 -3 1 -6 -7 -6 -10 0 -10 -3 -1 -14 7 -8 11 -20 10
-28 -4 -34 1 -42 16 -22 17 23 19 38 3 28 -7 -4 -8 -3 -4 4 11 18 23 14 29 -8
3 -11 1 -18 -4 -14 -15 9 -10 -6 7 -23 15 -15 16 -14 11 18 -4 31 -2 35 19 35
12 0 20 -4 18 -8 -3 -5 -10 -6 -15 -3 -5 4 -9 1 -9 -4 0 -14 6 -14 31 0 16 8
18 13 8 25 -7 8 -7 14 -1 14 15 0 22 -25 11 -41 -15 -24 -9 -35 7 -14 13 17
16 18 24 5 7 -10 10 -11 11 -2 3 27 4 31 13 39 5 4 6 3 3 -3 -4 -7 1 -18 10
-25 15 -13 16 -11 10 11 -5 21 -4 22 6 10 7 -9 20 -14 31 -12 11 2 16 0 12 -7
-4 -6 -2 -11 4 -11 6 0 8 -4 5 -10 -3 -5 -1 -10 5 -10 7 0 9 9 5 22 -7 23 -7
23 9 3 8 -11 16 -15 16 -9 0 25 31 24 42 -1 11 -24 12 -24 31 -8 19 17 20 17
15 -4 -4 -16 0 -22 17 -25 16 -4 22 -1 18 9 -3 7 -10 10 -16 6 -6 -3 -7 -1 -3
6 6 9 14 8 33 -4 14 -9 27 -14 30 -11 3 3 22 -3 42 -13 23 -12 48 -17 70 -13
19 3 31 1 28 -5 -3 -5 -21 -8 -40 -8 -21 1 -34 -3 -34 -11 0 -15 18 -14 29 1
4 5 14 3 25 -7 15 -13 20 -14 30 -3 6 7 10 15 7 18 -3 2 6 2 20 0 17 -4 23
-10 19 -20 -5 -13 -2 -13 15 -4 28 15 32 14 26 -4 -7 -17 11 -21 21 -5 3 6 13
10 21 10 8 0 13 -4 9 -10 -3 -5 16 -3 42 5 137 42 350 -10 492 -119 81 -62
104 -92 90 -118 -8 -15 -7 -24 7 -39 13 -14 15 -22 6 -31 -17 -17 -45 -1 -39
22 17 67 -244 184 -460 205 -87 8 -129 1 -136 -26 -3 -10 -11 -19 -17 -19 -7
0 -10 7 -6 15 7 19 -12 19 -57 0 -19 -8 -37 -23 -40 -35 -3 -11 -11 -20 -17
-20 -9 0 -9 4 1 17 7 10 -13 -9 -44 -42 -31 -33 -57 -69 -57 -80 0 -27 -16
-49 -28 -41 -12 7 -37 -32 -27 -42 3 -4 9 -2 13 3 4 6 12 11 17 12 39 8 100
41 100 53 0 8 8 16 18 18 10 2 17 -3 17 -11 0 -12 16 -16 68 -19 37 -2 71 0
77 4 15 13 45 9 45 -5 0 -7 21 -19 48 -26 26 -6 60 -18 74 -25 23 -12 27 -12
32 0 3 8 15 14 26 14 26 0 26 -30 0 -37 -20 -5 -19 -6 5 -30 13 -14 44 -38 69
-53 42 -27 126 -121 126 -141 0 -5 11 -14 25 -19 19 -7 25 -16 24 -37 -1 -16
6 -57 15 -93 8 -36 16 -98 16 -139 0 -73 0 -73 25 -67 66 17 234 89 239 102 3
9 12 14 20 11 20 -8 389 210 386 228 -1 3 1 11 3 18 4 9 7 9 14 0 6 -9 27 -1
78 27 60 34 70 43 67 64 -2 13 2 27 7 31 7 4 11 -4 11 -19 0 -18 4 -24 15 -20
10 4 15 20 15 49 0 53 51 336 95 530 33 148 38 177 32 227 -5 52 -5 52 9 21
16 -38 7 -133 -25 -260 -34 -133 -82 -395 -86 -460 -2 -34 -6 -66 -10 -72 -11
-19 10 -12 58 20 52 34 97 83 97 105 0 9 5 12 10 9 17 -11 11 -71 -10 -97 -23
-30 -157 -122 -295 -204 -55 -32 -162 -100 -238 -151 -214 -144 -377 -215
-663 -286 -221 -56 -337 -71 -534 -71 -238 -1 -373 29 -447 97 -28 25 -32 21
-21 -21 12 -44 78 -86 172 -108 104 -25 396 -31 551 -10 219 29 512 113 699
200 50 23 165 92 256 152 91 61 219 142 285 181 144 85 220 143 247 189 17 29
23 32 39 23 11 -5 24 -7 29 -4 6 3 15 3 21 -1 8 -5 8 -8 0 -14 -7 -4 16 -6 51
-5 35 1 68 -2 75 -7 7 -6 14 -5 18 2 5 8 12 5 21 -7 12 -16 15 -16 24 -3 6 10
10 11 10 3 0 -7 7 -10 15 -7 8 4 27 -2 42 -11 16 -11 28 -14 30 -8 3 7 14 6
33 -4 17 -8 35 -11 41 -8 5 4 19 -1 29 -10 10 -9 23 -14 28 -11 15 9 43 -5 35
-18 -4 -6 1 -5 11 3 15 12 17 12 14 0 -2 -9 4 -13 16 -11 10 2 15 -1 12 -7 -7
-11 26 -7 46 5 7 5 8 3 3 -6 -6 -10 -4 -12 8 -7 9 3 18 -1 21 -10 4 -10 14
-13 28 -10 12 4 28 1 35 -4 7 -6 18 -9 25 -7 7 3 27 -3 45 -13 23 -13 33 -15
36 -6 3 9 8 8 18 -2 12 -12 12 -13 -1 -6 -13 7 -13 6 -1 -6 11 -11 14 -11 18
-1 4 10 10 10 29 -3 22 -14 23 -14 17 2 -6 16 -5 16 10 4 9 -7 15 -17 12 -21
-3 -4 8 -7 24 -6 17 1 28 -1 26 -5 -3 -3 14 -9 37 -12 22 -3 45 -11 49 -19 5
-7 9 -9 9 -4 0 5 6 4 13 -3 10 -8 17 -7 25 1 9 9 12 9 12 0 0 -7 14 -12 35
-12 19 0 35 -4 35 -10 0 -5 7 -7 15 -4 9 4 15 0 15 -7 0 -12 2 -12 9 -1 7 11
9 11 14 -2 4 -10 16 -14 37 -11 16 2 30 -1 30 -6 0 -6 5 -7 10 -4 6 3 10 2 10
-2 0 -5 8 -9 18 -10 24 -2 62 -10 99 -22 17 -5 34 -7 36 -5 6 6 57 -17 57 -26
0 -3 12 -6 28 -5 15 1 35 -4 45 -11 10 -6 27 -10 38 -7 10 3 19 1 19 -5 0 -6
11 -9 25 -7 14 1 25 -2 25 -7 0 -6 6 -8 14 -5 8 3 30 -2 50 -12 24 -13 38 -15
45 -8 8 8 11 6 11 -7 0 -9 5 -14 10 -11 6 4 16 3 23 -2 7 -5 28 -10 47 -12 19
-2 37 -7 40 -11 3 -4 26 -11 53 -15 26 -4 50 -11 52 -16 3 -4 14 -6 25 -4 11
2 20 1 20 -3 0 -4 15 -9 33 -10 17 -2 33 -7 35 -12 2 -5 10 -6 19 -3 12 5 14
3 8 -7 -5 -9 -4 -11 4 -6 14 9 53 -2 46 -13 -2 -5 7 -6 20 -3 14 2 32 -1 40
-8 8 -6 19 -9 24 -5 6 3 19 1 29 -4 10 -5 29 -11 43 -13 13 -2 29 -7 35 -11
12 -7 72 -18 112 -20 12 -1 22 -3 22 -7 0 -3 15 -6 33 -7 17 -2 41 -4 52 -6
11 -2 32 -1 47 4 16 4 30 3 34 -2 4 -6 11 -6 20 2 11 9 17 9 29 -1 8 -7 15 -8
15 -3 0 12 67 36 80 28 5 -3 10 -1 10 5 0 7 6 10 13 7 6 -2 21 0 31 6 11 5 33
11 50 13 102 11 118 15 216 57 14 5 34 11 45 12 11 1 61 16 110 33 50 16 105
33 122 37 18 3 35 11 38 16 4 5 17 9 31 9 17 0 23 4 18 12 -4 6 -3 8 4 4 6 -3
32 1 59 10 26 10 55 18 63 19 8 1 29 8 45 15 32 14 50 19 78 22 9 1 17 6 17
10 0 4 3 7 8 6 4 -1 33 8 65 20 31 12 61 21 65 21 4 -1 10 0 15 1 4 1 10 3 15
4 27 6 89 30 97 37 5 5 22 9 38 9 15 0 26 4 23 9 -4 5 2 8 11 6 10 -1 28 4 41
11 12 8 22 12 22 9 0 -3 17 2 38 9 20 8 98 33 172 56 74 23 144 46 155 51 11
5 33 11 49 13 15 3 39 12 53 22 14 9 22 11 18 4 -5 -8 -2 -9 11 -2 20 10 32
14 179 63 94 32 96 32 158 48 21 5 45 15 54 23 9 7 14 8 10 1 -4 -6 11 -2 34
9 22 10 43 17 47 14 3 -3 12 0 20 6 8 7 24 14 36 15 11 2 80 24 151 49 72 25
146 49 165 54 19 4 49 13 65 19 17 7 32 13 35 13 3 0 15 4 28 9 13 5 29 9 37
9 8 0 17 5 20 10 4 6 10 8 15 5 5 -3 11 -1 15 5 4 6 10 8 14 5 5 -2 32 5 62
16 30 12 66 24 81 26 15 3 26 9 23 13 -3 5 3 7 12 5 10 -1 27 2 38 8 11 6 29
12 40 13 11 1 65 19 120 39 55 20 105 38 110 39 6 1 15 4 20 7 6 3 17 5 25 4
8 0 17 2 20 5 3 3 32 13 65 24 33 10 71 23 85 29 14 6 31 12 39 13 8 2 26 6
40 10 14 4 29 7 34 6 4 -1 7 2 7 6 0 5 6 9 13 9 6 0 62 17 124 37 61 20 120
39 130 41 10 3 58 18 108 35 49 16 95 30 102 30 7 0 13 4 13 8 0 5 6 9 13 9 6
0 53 13 102 29 94 29 98 31 116 33 5 0 8 4 6 8 -3 5 9 9 26 10 18 2 55 12 83
24 29 11 59 21 68 23 8 1 19 5 22 9 4 4 16 7 26 7 11 0 29 5 41 12 12 7 31 14
42 16 30 6 36 7 105 31 70 24 165 55 175 56 6 0 21 6 35 12 32 14 119 42 145
47 11 2 52 16 90 31 39 15 82 28 97 30 15 2 41 11 57 20 17 8 31 13 31 10 0
-3 13 1 30 10 16 8 32 15 35 15 12 0 38 5 55 12 8 3 36 12 63 19 26 7 47 17
47 22 0 4 5 5 10 2 6 -4 17 -1 25 5 8 7 15 10 15 7 0 -3 26 3 58 14 31 11 64
22 72 24 8 2 29 9 45 15 42 15 368 121 380 124 12 2 114 35 135 43 19 8 30 11
58 17 12 3 28 8 34 12 7 5 19 9 28 10 13 1 40 10 135 44 11 4 47 15 80 25 33
10 65 21 70 24 6 3 15 6 20 7 43 8 137 45 151 58 25 25 4 44 -31 28 -14 -7
-37 -12 -51 -12 -14 0 -23 -4 -19 -9 3 -5 0 -13 -6 -17 -8 -4 -9 -3 -5 4 4 7
1 12 -8 12 -8 0 -16 -4 -18 -10 -1 -5 -15 -11 -30 -12 -16 -1 -28 -6 -28 -11
0 -4 -4 -6 -8 -3 -14 8 -83 -14 -77 -25 6 -9 -14 -13 -51 -10 -12 1 -25 -6
-28 -15 -4 -11 -13 -14 -30 -10 -16 4 -26 1 -30 -9 -4 -11 -13 -14 -32 -9 -20
5 -25 4 -19 -5 5 -9 0 -12 -16 -10 -13 2 -30 -1 -38 -5 -8 -5 -28 -10 -45 -12
-16 -1 -35 -8 -40 -15 -6 -8 -20 -15 -31 -17 -55 -9 -75 -15 -75 -23 0 -5 -7
-6 -15 -2 -9 3 -24 -2 -35 -12 -10 -9 -24 -14 -30 -10 -6 4 -18 1 -26 -6 -8
-6 -17 -9 -21 -6 -3 4 -20 -2 -38 -13 -18 -11 -35 -17 -38 -14 -4 4 -18 -1
-33 -11 -15 -9 -23 -12 -20 -6 9 14 -41 -6 -66 -27 -10 -8 -25 -11 -39 -7 -14
5 -19 4 -15 -4 5 -7 -5 -11 -29 -11 -22 0 -38 -6 -41 -14 -3 -8 -12 -12 -19
-9 -8 2 -20 1 -27 -3 -7 -5 -17 -9 -23 -9 -13 -1 -66 -15 -85 -22 -8 -4 -19
-5 -23 -4 -5 1 -6 -3 -3 -8 4 -5 2 -12 -3 -15 -5 -4 -12 -2 -16 4 -4 6 -14 4
-29 -5 -12 -8 -25 -12 -29 -9 -9 10 -48 -7 -41 -17 3 -6 0 -10 -7 -8 -33 4
-70 -2 -64 -11 3 -5 -7 -12 -22 -15 -15 -4 -37 -10 -48 -15 -32 -14 -154 -50
-162 -49 -5 1 -11 0 -15 -1 -5 -1 -11 -3 -15 -4 -5 -1 -18 -8 -31 -15 -13 -7
-29 -10 -37 -8 -7 3 -23 -1 -34 -10 -12 -8 -25 -13 -27 -10 -3 3 -17 -1 -31
-8 -15 -8 -30 -12 -34 -10 -4 3 -12 -2 -19 -10 -6 -7 -17 -12 -25 -9 -7 3 -28
-4 -46 -15 -19 -12 -44 -21 -56 -21 -13 0 -23 -4 -23 -10 0 -5 -11 -10 -24
-10 -13 0 -44 -8 -68 -18 -24 -9 -52 -17 -63 -17 -11 0 -26 -6 -34 -13 -12
-11 -15 -11 -22 0 -5 7 -9 8 -9 2 0 -6 -11 -16 -25 -22 -16 -8 -25 -8 -25 -1
0 6 -9 5 -22 -3 -13 -7 -26 -11 -31 -10 -4 1 -24 -7 -44 -18 -21 -11 -59 -23
-86 -26 -32 -5 -44 -10 -35 -15 13 -9 11 -10 -29 -14 -13 -1 -29 -8 -37 -14
-8 -7 -20 -11 -28 -10 -7 2 -24 -2 -38 -9 -23 -12 -24 -12 -6 2 11 9 15 16 9
16 -5 0 -20 -9 -33 -20 -24 -20 -33 -24 -62 -21 -9 1 -19 -2 -22 -8 -3 -5 -14
-7 -25 -4 -10 2 -25 -3 -34 -11 -8 -9 -23 -13 -31 -10 -10 4 -18 0 -22 -10 -4
-10 -18 -16 -39 -16 -19 0 -37 -4 -40 -10 -3 -5 -17 -10 -31 -10 -14 0 -33 -7
-41 -16 -9 -8 -24 -13 -34 -11 -10 3 -24 -2 -30 -9 -7 -8 -18 -13 -25 -10 -7
3 -14 0 -17 -7 -2 -6 -20 -11 -40 -10 -20 1 -35 -3 -32 -7 3 -5 -4 -6 -15 -3
-12 3 -20 0 -20 -6 0 -7 -4 -10 -9 -7 -13 8 -42 -4 -35 -15 3 -5 -12 -8 -34
-7 -23 1 -49 -6 -63 -15 -13 -10 -36 -17 -52 -17 -17 0 -26 -4 -22 -11 4 -6
-2 -9 -17 -8 -40 4 -59 -1 -53 -11 4 -6 3 -9 -2 -8 -15 4 -83 -13 -83 -21 0
-8 -16 -11 -57 -12 -13 -1 -20 -5 -17 -11 3 -5 0 -8 -7 -7 -20 4 -60 -11 -77
-28 -11 -11 -17 -11 -22 -3 -9 14 -50 -3 -50 -21 0 -5 -11 -7 -24 -3 -14 3
-29 0 -37 -9 -7 -8 -22 -12 -33 -9 -12 3 -17 1 -13 -5 8 -12 -20 -26 -33 -18
-5 3 -30 0 -55 -6 -33 -8 -43 -14 -33 -21 8 -5 3 -6 -14 -2 -18 4 -28 2 -28
-5 0 -6 -12 -11 -27 -11 -32 0 -163 -41 -163 -51 0 -4 -8 -5 -18 -2 -10 2 -28
-5 -40 -15 -13 -11 -31 -18 -41 -15 -10 3 -32 -2 -49 -11 -17 -9 -40 -16 -52
-16 -11 0 -20 -4 -20 -10 0 -5 -7 -7 -15 -4 -8 4 -21 2 -28 -3 -6 -6 -41 -18
-77 -27 -36 -9 -123 -37 -195 -60 -71 -24 -211 -69 -310 -100 -320 -102 -424
-139 -419 -148 5 -8 -9 -12 -39 -8 -10 1 -64 -13 -120 -30 -257 -80 -323 -102
-339 -111 -10 -5 -25 -9 -35 -9 -9 0 -53 -13 -97 -29 -45 -16 -169 -57 -276
-91 -107 -34 -201 -63 -208 -66 -7 -2 -23 1 -34 7 -45 24 -74 20 -175 -26 -55
-25 -109 -45 -120 -45 -58 0 -100 103 -153 375 -17 88 -35 176 -40 195 -5 19
-16 94 -25 165 -9 72 -20 144 -25 160 -5 17 -14 73 -20 125 -15 132 -20 150
-36 150 -10 0 -14 13 -14 50 0 38 -4 52 -19 60 -11 5 -22 19 -26 29 -3 11 -20
24 -36 30 -17 6 -33 20 -36 31 -3 11 -17 23 -31 27 -14 3 -37 12 -51 19 -14 8
-34 14 -43 14 -19 0 -58 33 -58 49 0 17 -52 43 -75 37 -14 -4 -32 1 -48 14
-14 11 -35 20 -48 20 -12 0 -29 7 -38 15 -9 8 -26 24 -39 35 -14 13 -30 19
-41 15 -12 -3 -21 0 -25 10 -4 11 -13 14 -26 10 -11 -4 -20 -2 -20 4 0 6 -11
11 -25 11 -14 0 -28 7 -31 15 -7 18 -31 20 -37 3 -4 -10 -7 -10 -18 -1 -10 10
-10 13 0 13 7 0 9 5 6 10 -4 6 -10 8 -15 5 -4 -3 -14 2 -21 11 -8 10 -22 14
-40 10 -23 -4 -27 -2 -22 10 5 13 1 15 -15 9 -18 -5 -22 -2 -22 15 0 17 -4 20
-19 15 -11 -3 -24 0 -30 7 -41 48 -59 64 -84 75 -15 7 -30 21 -33 30 -3 10
-10 26 -15 36 -5 10 -7 22 -4 27 4 6 1 10 -4 10 -6 0 -11 20 -11 44 0 25 -5
48 -10 51 -8 5 -8 11 0 20 9 10 7 13 -7 9 -13 -3 -24 8 -40 43 -12 26 -20 49
-18 51 2 2 17 -4 34 -12 45 -24 55 -19 32 13 -12 16 -21 32 -21 36 0 4 -11 20
-25 37 -17 20 -25 42 -25 68 0 21 -6 41 -12 43 -10 4 -9 8 2 16 12 9 10 11
-13 11 -26 0 -28 2 -21 34 5 30 2 39 -25 65 -18 17 -29 31 -25 31 4 0 -3 9
-16 20 -13 11 -28 20 -34 20 -6 0 -3 7 5 16 14 14 31 12 170 -16 85 -17 181
-36 214 -42 33 -6 65 -14 70 -18 6 -4 17 -8 25 -8 8 0 33 -5 55 -11 22 -6 65
-13 95 -16 30 -4 69 -10 85 -15 17 -5 59 -12 95 -16 36 -3 76 -11 90 -16 28
-11 68 -19 260 -54 74 -14 171 -32 215 -41 91 -17 246 -23 320 -11 28 5 66 11
87 14 28 5 40 14 55 41 10 19 28 41 41 49 12 8 22 21 22 29 0 9 10 15 25 15
14 0 25 5 25 10 0 6 10 10 23 10 12 0 67 6 122 14 55 8 138 20 185 26 47 6 97
13 112 16 15 2 48 -3 74 -11 26 -8 51 -12 55 -10 4 3 9 -4 12 -15 6 -24 -25
-39 -138 -70 -80 -22 -174 -50 -260 -78 -33 -11 -76 -23 -95 -27 -19 -3 -60
-15 -90 -25 -78 -25 -96 -29 -196 -36 -68 -5 -96 -11 -119 -28 l-30 -21 34 -3
c34 -4 205 34 315 69 33 11 72 19 88 19 15 0 28 4 28 9 0 5 17 11 38 14 36 5
88 17 217 50 186 48 238 61 320 77 130 27 149 30 260 45 147 21 275 45 315 60
l35 13 -28 11 c-16 6 -36 11 -46 11 -10 0 -31 4 -47 9 -16 5 -67 14 -114 21
-100 14 -161 30 -155 40 3 4 -15 11 -40 14 -25 4 -45 10 -45 14 0 4 -18 16
-40 26 -22 11 -40 23 -40 28 0 4 -8 8 -18 8 -17 0 -83 40 -110 67 -7 7 -18 13
-24 13 -6 0 -29 15 -52 33 -23 18 -52 37 -66 44 -60 26 -168 77 -203 94 -21
10 -43 19 -49 19 -6 0 -19 6 -27 13 -9 7 -36 19 -61 27 -25 7 -54 18 -65 25
-11 6 -47 20 -80 30 -33 10 -65 22 -72 27 -7 5 -17 7 -23 3 -5 -3 -17 1 -26 9
-8 9 -26 17 -40 17 -29 2 -28 2 -84 16 -72 19 -104 27 -115 28 -5 1 -17 5 -25
8 -8 4 -33 9 -55 12 -95 13 -115 18 -121 26 -3 5 -21 9 -41 9 -21 0 -45 8 -56
17 -15 13 -21 15 -24 6 -4 -10 -9 -10 -26 -1 -12 7 -29 12 -38 13 -8 0 -23 8
-33 18 -19 18 -41 14 -29 -6 3 -7 -2 -5 -13 4 -10 8 -32 16 -49 17 -16 1 -31
7 -33 12 -2 6 -15 10 -28 10 -13 0 -24 5 -24 12 0 9 -3 9 -11 1 -9 -9 -25 -5
-63 15 -28 14 -54 30 -57 34 -3 5 -19 4 -35 -2 -20 -8 -30 -8 -32 -1 -2 6 -13
11 -25 11 -12 0 -31 7 -41 15 -19 14 -18 15 10 16 24 2 22 3 -11 8 -22 4 -45
3 -52 -2 -6 -4 -14 -3 -18 3 -4 6 -13 9 -21 6 -8 -3 -23 5 -34 17 -18 18 -22
19 -30 7 -8 -12 -13 -11 -33 8 -13 13 -29 22 -35 20 -6 -2 -17 5 -25 16 -8 10
-26 19 -42 19 -16 -1 -35 6 -43 13 -7 8 -19 14 -27 14 -7 0 -25 7 -41 14 -15
8 -31 13 -36 10 -4 -3 -8 2 -8 10 0 9 -3 16 -7 16 -5 0 -15 4 -23 10 -12 7 -9
16 18 48 25 33 29 41 16 46 -8 3 -12 11 -9 17 4 6 13 8 20 5 7 -2 35 7 61 20
32 17 58 23 77 20 16 -3 27 -1 27 5 0 7 8 9 23 4 37 -12 117 -13 117 -1 0 6
20 11 47 11 28 0 48 5 50 12 3 9 11 8 29 -3 18 -13 27 -14 38 -5 11 9 15 7 19
-9 5 -20 5 -20 39 -1 18 11 56 22 83 25 28 3 50 6 50 7 0 4 158 10 235 8 134
-2 150 -4 150 -11 0 -10 234 -7 247 4 7 5 17 7 23 3 41 -25 466 29 585 75 11
5 47 16 80 25 120 33 173 62 347 189 91 67 134 84 262 106 48 8 79 19 99 36
48 41 136 80 227 102 176 44 338 82 430 102 190 41 440 103 436 107 -5 5 -44
-3 -294 -62 -81 -19 -187 -44 -237 -55 -347 -79 -774 -183 -905 -220 -113 -32
-294 -70 -331 -70 -24 0 -42 7 -55 21 -22 24 -53 23 -159 -10 -72 -22 -77 -22
-210 4 -38 8 -87 15 -108 17 -21 1 -41 6 -43 10 -3 4 -22 8 -43 8 -20 0 -71 9
-112 20 -41 11 -94 20 -118 20 -25 0 -58 4 -75 10 -17 5 -123 25 -236 45 -597
102 -676 116 -802 140 -69 14 -139 25 -155 25 -16 0 -33 4 -39 10 -5 5 -45 16
-89 24 -146 26 -340 78 -445 119 -30 11 -98 47 -151 79 -53 32 -101 58 -107
58 -7 0 -12 4 -12 10 0 5 -27 28 -60 51 -32 23 -57 46 -54 51 3 4 1 8 -4 8
-13 0 -83 204 -98 285 -4 22 -15 62 -25 88 -11 26 -19 63 -19 82 0 19 -4 37
-10 40 -5 3 -10 19 -10 36 0 16 -4 29 -10 29 -5 0 -10 5 -10 11 0 5 5 7 10 4
6 -4 10 8 10 29 0 19 -5 36 -10 38 -10 3 -21 95 -60 523 -41 451 -52 628 -41
665 14 47 63 68 190 79 92 7 107 12 198 58 105 54 143 63 428 98 61 8 162 21
225 30 63 8 237 31 385 50 338 43 675 95 875 135 151 30 325 71 340 80 18 11
3 30 -23 30 -12 0 28 25 88 54 264 129 402 291 506 596 68 197 93 361 93 600
0 287 -36 434 -173 708 -159 316 -274 486 -452 664 l-137 138 -22 177 c-12 98
-24 181 -26 185 -3 4 -17 2 -32 -4 -73 -29 -1716 -18 -1821 12 -28 8 -31 6
-31 -13z m700 -6687 c0 -5 -4 -10 -10 -10 -5 0 -10 5 -10 10 0 6 5 10 10 10 6
0 10 -4 10 -10z m190 -190 c0 -5 -5 -10 -11 -10 -5 0 -7 5 -4 10 3 6 8 10 11
10 2 0 4 -4 4 -10z m-5168 -903 c75 -7 207 -75 421 -215 21 -14 51 -42 67 -62
28 -35 79 -153 94 -215 4 -16 13 -36 19 -43 12 -15 15 -26 24 -86 4 -30 1 -41
-11 -48 -10 -5 -21 -21 -26 -34 -8 -21 -13 -23 -30 -14 -11 6 -24 9 -29 6 -23
-15 -132 -23 -205 -15 -129 14 -206 48 -206 89 0 34 -79 176 -119 215 -22 21
-41 34 -41 27 0 -14 -36 -16 -45 -3 -3 6 3 14 12 20 15 8 10 14 -37 35 -63 30
-85 32 -94 11 -6 -17 -36 -21 -36 -5 0 6 4 10 9 10 8 0 131 258 153 322 6 17
13 26 17 20 3 -5 32 -12 63 -15z m-3525 -13 c-3 -3 -12 -4 -19 -1 -8 3 -5 6 6
6 11 1 17 -2 13 -5z m3269 -372 c104 -47 174 -114 220 -209 26 -53 26 -86 -1
-97 -8 -3 -22 8 -34 27 -14 22 -21 27 -21 15 0 -11 -8 -18 -20 -18 -13 0 -20
7 -20 20 0 12 7 20 17 20 12 0 0 17 -37 55 -48 49 -55 52 -66 37 -10 -13 -15
-14 -25 -5 -10 10 -10 15 0 27 10 12 5 19 -32 40 -56 33 -133 48 -180 35 -42
-11 -80 -54 -72 -80 8 -25 -14 -35 -29 -13 -11 15 -9 24 18 61 17 24 51 57 75
74 37 24 55 29 107 29 38 0 77 -7 100 -18z m3294 -67 c107 -17 183 -37 201
-52 8 -6 26 -14 42 -18 15 -4 27 -11 27 -16 0 -5 6 -9 14 -9 17 0 26 -22 26
-64 0 -17 9 -94 20 -171 11 -77 20 -168 20 -201 0 -42 5 -65 15 -74 24 -20 19
-93 -9 -127 -12 -15 -21 -34 -18 -42 3 -10 0 -12 -14 -7 -10 4 -47 8 -84 10
-93 5 -142 31 -164 90 -10 25 -24 46 -32 46 -9 0 -14 10 -14 28 0 19 -12 40
-40 67 -35 34 -48 40 -83 40 -35 0 -42 3 -40 18 2 34 -151 87 -175 60 -17 -18
-32 -16 -32 3 0 14 -9 16 -50 12 -43 -4 -50 -3 -46 11 3 9 12 64 22 123 19
120 61 219 107 253 19 13 51 22 95 26 104 9 121 9 212 -6z m-3405 -16 c-4 -5
-16 -9 -28 -9 -21 1 -21 1 -3 15 20 15 41 11 31 -6z m382 -5 c8 -21 -13 -42
-28 -27 -13 13 -5 43 11 43 6 0 13 -7 17 -16z m-387 -78 c0 -18 -30 -30 -43
-17 -5 5 -6 14 -3 20 10 16 46 13 46 -3z m-39 -72 c73 -39 164 -122 195 -179
17 -33 14 -85 -6 -85 -6 0 -34 25 -63 56 -100 108 -240 184 -341 184 -40 0
-55 -4 -60 -16 -4 -9 -13 -14 -21 -10 -8 3 -24 -4 -35 -16 -17 -18 -20 -19
-20 -5 0 9 16 35 36 56 72 80 181 85 315 15z m456 -10 c8 -21 -13 -42 -28 -27
-13 13 -5 43 11 43 6 0 13 -7 17 -16z m-277 -11 c0 -14 -19 -38 -25 -32 -8 8
5 39 16 39 5 0 9 -3 9 -7z m-444 -61 c-8 -9 -19 -13 -22 -9 -10 9 16 38 28 31
6 -4 4 -13 -6 -22z m147 1 c9 -9 -12 -33 -29 -33 -17 0 -18 27 -1 33 18 8 23
8 30 0z m724 -29 c8 -21 -13 -42 -28 -27 -13 13 -5 43 11 43 6 0 13 -7 17 -16z
m493 2 c0 -8 -4 -18 -10 -21 -5 -3 -10 3 -10 14 0 12 5 21 10 21 6 0 10 -6 10
-14z m-375 -36 c10 -16 -16 -43 -28 -31 -11 11 -2 41 12 41 5 0 13 -5 16 -10z
m432 -12 c-3 -8 -6 -5 -6 6 -1 11 2 17 5 13 3 -3 4 -12 1 -19z m-1119 -31 c2
-11 -3 -17 -16 -17 -26 0 -34 11 -20 27 14 17 32 12 36 -10z m292 4 c0 -11 -4
-22 -9 -25 -12 -8 -34 21 -26 34 11 17 35 11 35 -9z m109 -7 c-14 -18 -24 -11
-15 11 3 9 11 13 16 10 8 -5 7 -11 -1 -21z m406 -5 c0 -7 -8 -15 -17 -17 -18
-3 -25 18 -11 32 10 10 28 1 28 -15z m115 -28 c0 -23 -16 -36 -25 -21 -9 14 1
40 15 40 5 0 10 -9 10 -19z m-507 -4 c3 -8 1 -20 -4 -28 -11 -19 -34 3 -26 25
8 20 23 21 30 3z m-868 -17 c-3 -5 -11 -10 -16 -10 -6 0 -7 5 -4 10 3 6 11 10
16 10 6 0 7 -4 4 -10z m1483 -17 c-5 -25 -28 -28 -28 -4 0 12 6 21 16 21 9 0
14 -7 12 -17z m-502 -4 c10 -17 -13 -36 -27 -22 -12 12 -4 33 11 33 5 0 12 -5
16 -11z m621 -11 c-3 -8 -6 -5 -6 6 -1 11 2 17 5 13 3 -3 4 -12 1 -19z m1763
2 c0 -5 -5 -10 -11 -10 -5 0 -7 5 -4 10 3 6 8 10 11 10 2 0 4 -4 4 -10z
m-2270 -40 c0 -11 -7 -20 -15 -20 -8 0 -15 9 -15 20 0 11 7 20 15 20 8 0 15
-9 15 -20z m2498 -16 c40 -16 94 -45 120 -66 26 -21 57 -42 70 -48 12 -5 22
-18 22 -29 0 -10 7 -24 15 -31 16 -13 21 -65 7 -74 -5 -3 -35 19 -68 49 -117
109 -305 175 -436 154 -74 -12 -107 -25 -115 -44 -3 -9 -12 -14 -19 -11 -9 3
-23 -8 -37 -29 -20 -31 -37 -45 -37 -30 0 18 43 85 72 111 66 63 136 85 253
80 58 -3 100 -12 153 -32z m-3611 9 c-9 -9 -19 -14 -23 -11 -10 10 6 28 24 28
15 0 15 -1 -1 -17z m488 -13 c0 -22 -39 -19 -43 3 -3 15 1 18 20 15 12 -2 23
-10 23 -18z m140 -10 c0 -8 -8 -16 -17 -18 -13 -2 -18 3 -18 18 0 15 5 20 18
18 9 -2 17 -10 17 -18z m603 -3 c2 -12 -3 -17 -17 -17 -23 0 -24 1 -15 25 8
19 28 15 32 -8z m-493 -15 c0 -31 -19 -28 -23 4 -3 18 0 25 10 22 7 -3 13 -14
13 -26z m-575 -8 c0 -8 -9 -14 -20 -14 -22 0 -28 26 -7 33 16 6 27 -1 27 -19z
m1190 -8 c0 -8 -5 -18 -11 -22 -14 -8 -33 11 -25 25 10 16 36 13 36 -3z m-503
-30 c-4 -9 -11 -16 -17 -16 -11 0 -14 33 -3 44 11 10 26 -11 20 -28z m2613 15
c0 -6 -5 -13 -10 -16 -15 -9 -43 3 -35 15 8 13 45 13 45 1z m-1850 -16 c0 -8
-4 -15 -10 -15 -5 0 -10 7 -10 15 0 8 5 15 10 15 6 0 10 -7 10 -15z m1660 -10
c-7 -8 -17 -15 -22 -15 -6 0 -5 7 2 15 7 8 17 15 22 15 6 0 5 -7 -2 -15z
m-2310 -15 c0 -11 -7 -20 -15 -20 -8 0 -15 9 -15 20 0 11 7 20 15 20 8 0 15
-9 15 -20z m110 -35 c0 -8 -5 -17 -11 -21 -16 -9 -30 18 -17 33 12 15 28 8 28
-12z m410 11 c0 -21 -21 -31 -30 -15 -5 7 -6 17 -4 21 9 14 34 9 34 -6z m2176
3 c3 -6 1 -16 -4 -21 -13 -13 -45 8 -36 23 7 12 31 11 40 -2z m-3319 -10 c14
-14 6 -39 -12 -39 -18 0 -28 17 -21 35 6 18 18 19 33 4z m2963 -3 c0 -14 -29
-31 -38 -21 -6 6 18 35 29 35 5 0 9 -6 9 -14z m-3450 -10 c0 -14 -29 -31 -38
-21 -6 6 18 35 29 35 5 0 9 -6 9 -14z m638 -14 c2 -14 -2 -22 -12 -22 -19 0
-29 17 -22 36 8 22 30 12 34 -14z m-768 3 c-7 -9 -15 -13 -17 -11 -7 7 7 26
19 26 6 0 6 -6 -2 -15z m3778 -2 c5 -17 -26 -29 -40 -15 -6 6 -7 15 -3 22 9
14 37 9 43 -7z m-2888 -13 c0 -11 -7 -20 -15 -20 -15 0 -21 21 -8 33 12 13 23
7 23 -13z m570 0 c0 -11 -7 -20 -15 -20 -8 0 -15 9 -15 20 0 11 7 20 15 20 8
0 15 -9 15 -20z m2500 6 c0 -16 -18 -31 -27 -22 -8 8 5 36 17 36 5 0 10 -6 10
-14z m-2970 -37 c0 -24 -23 -21 -28 4 -2 10 3 17 12 17 10 0 16 -9 16 -21z
m590 -4 c0 -8 -5 -17 -11 -21 -16 -9 -30 18 -17 33 12 15 28 8 28 -12z m265
-5 c0 -7 -6 -15 -12 -17 -8 -3 -13 4 -13 17 0 13 5 20 13 18 6 -3 12 -11 12
-18z m1795 4 c36 -8 101 -32 145 -54 84 -41 215 -141 215 -164 0 -43 -27 -59
-51 -30 -22 27 -190 120 -269 150 -66 25 -89 28 -195 28 -109 1 -124 -1 -161
-23 -23 -13 -47 -34 -53 -47 -13 -29 -31 -32 -31 -5 0 21 71 106 103 123 71
38 192 47 297 22z m-3650 -13 c0 -13 -29 -35 -37 -28 -7 8 15 37 28 37 5 0 9
-4 9 -9z m1104 1 c2 -4 1 -14 -4 -22 -7 -11 -12 -12 -21 -3 -6 6 -8 16 -5 22
8 13 23 14 30 3z m-954 -31 c0 -14 -28 -33 -39 -27 -16 10 -1 36 20 36 10 0
19 -4 19 -9z m1060 -10 c0 -23 -16 -36 -25 -21 -9 14 1 40 15 40 5 0 10 -9 10
-19z m480 -2 c0 -24 -23 -21 -28 4 -2 10 3 17 12 17 10 0 16 -9 16 -21z m2560
-19 c0 -11 -4 -20 -10 -20 -5 0 -10 9 -10 20 0 11 5 20 10 20 6 0 10 -9 10
-20z m-2933 -6 c1 -5 -2 -16 -7 -24 -12 -20 -33 0 -24 24 7 17 25 17 31 0z
m597 1 c-4 -8 -8 -15 -10 -15 -2 0 -4 7 -4 15 0 8 4 15 10 15 5 0 7 -7 4 -15z
m2243 -1 c8 -21 -13 -42 -28 -27 -13 13 -5 43 11 43 6 0 13 -7 17 -16z m403
-5 c0 -11 -4 -18 -10 -14 -5 3 -7 12 -3 20 7 21 13 19 13 -6z m-3933 -5 c7
-20 -17 -37 -34 -23 -15 13 -6 39 13 39 8 0 17 -7 21 -16z m143 -14 c0 -11 -7
-20 -15 -20 -15 0 -21 21 -8 33 12 13 23 7 23 -13z m3254 4 c7 -19 -1 -34 -19
-34 -15 0 -28 27 -19 41 9 14 31 10 38 -7z m-3714 -14 c0 -13 -7 -20 -20 -20
-19 0 -27 20 -13 33 13 14 33 6 33 -13z m3160 11 c0 -12 -29 -35 -36 -28 -11
10 5 37 21 37 8 0 15 -4 15 -9z m-2590 -20 c0 -23 -16 -36 -25 -21 -9 14 1 40
15 40 5 0 10 -9 10 -19z m550 5 c0 -8 -5 -18 -11 -22 -14 -8 -33 11 -25 25 10
16 36 13 36 -3z m354 -5 c3 -5 -1 -14 -8 -20 -16 -13 -32 2 -21 19 8 12 22 13
29 1z m1873 -25 c-9 -23 -37 -20 -37 3 0 21 20 33 34 20 5 -4 6 -15 3 -23z
m583 30 c0 -3 -4 -8 -10 -11 -5 -3 -10 -1 -10 4 0 6 5 11 10 11 6 0 10 -2 10
-4z m90 -25 c0 -23 -16 -36 -25 -21 -9 14 1 40 15 40 5 0 10 -9 10 -19z
m-3356 0 c8 -13 -4 -42 -15 -35 -12 7 -12 44 0 44 6 0 12 -4 15 -9z m566 -11
c0 -11 -7 -20 -15 -20 -8 0 -15 9 -15 20 0 11 7 20 15 20 8 0 15 -9 15 -20z
m-470 -30 c0 -11 -7 -20 -15 -20 -15 0 -21 21 -8 33 12 13 23 7 23 -13z m3340
0 c0 -11 -4 -20 -10 -20 -5 0 -10 9 -10 20 0 11 5 20 10 20 6 0 10 -9 10 -20z
m-912 -16 c13 -23 144 -76 156 -64 6 6 19 10 29 10 15 0 18 -5 13 -24 -5 -20
0 -28 28 -45 41 -26 126 -115 126 -133 0 -7 -7 -22 -15 -32 -14 -18 -15 -18
-42 11 -50 53 -220 143 -271 143 -13 0 -30 6 -36 14 -17 23 -132 43 -156 28
-14 -8 -20 -9 -20 -1 0 7 -14 9 -42 4 -79 -12 -139 -37 -173 -71 -21 -21 -37
-30 -41 -23 -12 19 19 59 79 105 76 57 149 79 249 75 45 -1 79 2 83 8 9 16 23
13 33 -5z m-2328 -13 c0 -23 -16 -36 -25 -21 -9 14 1 40 15 40 5 0 10 -9 10
-19z m680 11 c0 -13 -12 -22 -22 -16 -10 6 -1 24 13 24 5 0 9 -4 9 -8z m2636
-28 c-5 -13 -10 -14 -18 -6 -6 6 -8 18 -4 28 5 13 10 14 18 6 6 -6 8 -18 4
-28z m-4026 1 c0 -25 -23 -35 -35 -15 -10 16 2 40 20 40 9 0 15 -9 15 -25z
m814 -28 c-7 -19 -20 -22 -29 -7 -9 15 16 43 27 32 5 -5 6 -16 2 -25z m-949
-1 c0 -22 -14 -29 -34 -17 -19 12 -6 43 16 39 10 -2 18 -12 18 -22z m305 5 c0
-11 -4 -22 -8 -25 -14 -9 -35 12 -29 28 9 23 37 20 37 -3z m3910 -1 c0 -11 -4
-20 -10 -20 -5 0 -10 9 -10 20 0 11 5 20 10 20 6 0 10 -9 10 -20z m-3780 -15
c0 -19 -20 -29 -32 -17 -8 8 -7 16 2 26 14 17 30 12 30 -9z m940 11 c0 -16
-18 -31 -27 -22 -8 8 5 36 17 36 5 0 10 -6 10 -14z m2225 -16 c0 -22 -39 -19
-43 3 -3 15 1 18 20 15 12 -2 23 -10 23 -18z m130 -5 c0 -28 -29 -25 -33 3 -3
19 0 23 15 20 10 -2 18 -12 18 -23z m91 -2 c-10 -10 -19 5 -10 18 6 11 8 11
12 0 2 -7 1 -15 -2 -18z m-2766 -3 c0 -11 -7 -20 -15 -20 -8 0 -15 9 -15 20 0
11 7 20 15 20 8 0 15 -9 15 -20z m2385 0 c0 -22 -39 -19 -43 3 -3 15 1 18 20
15 12 -2 23 -10 23 -18z m450 -3 c0 -26 -20 -25 -23 2 -3 16 1 22 10 19 7 -3
13 -12 13 -21z m-3355 -6 c0 -23 -16 -36 -25 -21 -9 14 1 40 15 40 5 0 10 -9
10 -19z m3760 -22 c0 -11 -4 -17 -10 -14 -5 3 -10 15 -10 26 0 11 5 17 10 14
6 -3 10 -15 10 -26z m-3130 1 c0 -11 -7 -20 -15 -20 -15 0 -21 21 -8 33 12 13
23 7 23 -13z m680 -15 c0 -3 -11 0 -24 5 -13 5 -26 7 -28 4 -3 -2 -5 2 -5 9 0
11 5 11 29 0 15 -8 28 -16 28 -18z m2135 -5 c-3 -6 -10 -10 -16 -10 -10 0 -12
33 -2 44 9 9 26 -22 18 -34z m-3355 10 c0 -21 -15 -27 -25 -10 -7 12 2 30 16
30 5 0 9 -9 9 -20z m1710 -9 c0 -6 -4 -12 -8 -15 -5 -3 -9 1 -9 9 0 8 4 15 9
15 4 0 8 -4 8 -9z m40 -1 c0 -5 -2 -10 -4 -10 -3 0 -8 5 -11 10 -3 6 -1 10 4
10 6 0 11 -4 11 -10z m470 -5 c0 -8 -7 -15 -15 -15 -16 0 -20 12 -8 23 11 12
23 8 23 -8z m-2132 -12 c-5 -25 -28 -28 -28 -4 0 12 6 21 16 21 9 0 14 -7 12
-17z m3347 -3 c0 -7 -6 -15 -12 -17 -8 -3 -13 4 -13 17 0 13 5 20 13 18 6 -3
12 -11 12 -18z m-3255 -31 c0 -24 -23 -21 -28 4 -2 10 3 17 12 17 10 0 16 -9
16 -21z m1694 -8 c-2 -3 -12 3 -22 13 -16 17 -16 18 5 5 12 -7 20 -15 17 -18z
m366 20 c0 -13 -26 -32 -33 -24 -8 7 11 33 24 33 5 0 9 -4 9 -9z m180 0 c0 -6
-5 -13 -10 -16 -15 -9 -43 3 -35 15 8 13 45 13 45 1z m1082 -26 c-12 -22 -27
-2 -18 22 5 12 10 13 17 6 7 -7 8 -17 1 -28z m-3962 -15 c0 -11 -6 -20 -14
-20 -18 0 -29 16 -21 30 11 18 35 11 35 -10z m748 3 c-5 -25 -28 -28 -28 -4 0
12 6 21 16 21 9 0 14 -7 12 -17z m-618 -13 c0 -11 -7 -20 -15 -20 -8 0 -15 9
-15 20 0 11 7 20 15 20 8 0 15 -9 15 -20z m3886 -17 c-11 -11 -19 6 -11 24 8
17 8 17 12 0 3 -10 2 -21 -1 -24z m-2498 3 c1 -16 -5 -25 -18 -29 -23 -6 -27
8 -5 17 8 3 15 9 14 13 -2 11 0 23 4 23 1 0 4 -11 5 -24z m38 4 c8 0 14 -4 14
-9 0 -5 -9 -7 -20 -4 -11 3 -20 13 -19 22 0 10 2 11 6 4 2 -7 11 -13 19 -13z
m1592 -3 c2 -12 -3 -17 -17 -17 -12 0 -21 6 -21 13 0 31 32 34 38 4z m312 2
c0 -25 -33 -22 -38 4 -2 12 3 17 17 17 15 0 21 -6 21 -21z m164 12 c8 -13 -4
-42 -15 -35 -12 7 -12 44 0 44 6 0 12 -4 15 -9z m-3374 -21 c0 -11 -7 -20 -15
-20 -8 0 -15 9 -15 20 0 11 7 20 15 20 8 0 15 -9 15 -20z m2828 -3 c2 -11 -3
-17 -16 -17 -26 0 -34 11 -20 27 14 17 32 12 36 -10z m474 1 c-7 -7 -12 -8
-12 -2 0 14 12 26 19 19 2 -3 -1 -11 -7 -17z m568 -8 c0 -11 -4 -20 -10 -20
-5 0 -10 9 -10 20 0 11 5 20 10 20 6 0 10 -9 10 -20z m-3770 -10 c0 -11 -7
-20 -15 -20 -15 0 -21 21 -8 33 12 13 23 7 23 -13z m3360 1 c0 -23 -16 -36
-25 -21 -9 14 1 40 15 40 5 0 10 -9 10 -19z m-3272 -28 c-5 -25 -28 -28 -28
-4 0 12 6 21 16 21 9 0 14 -7 12 -17z m3352 -2 c0 -22 -16 -36 -24 -22 -8 12
3 41 15 41 5 0 9 -9 9 -19z m-2314 -15 c18 -18 18 -23 0 -23 -8 0 -17 9 -19
19 -6 22 0 23 19 4z m2387 -33 c-3 -7 -9 -13 -14 -13 -11 0 -12 34 -2 43 9 10
22 -13 16 -30z m307 0 c0 -19 -3 -24 -10 -17 -6 6 -8 18 -4 27 9 24 14 21 14
-10z m-240 -18 c0 -14 -4 -25 -10 -25 -11 0 -14 33 -3 43 11 11 13 8 13 -18z
m-1180 6 c0 -5 -7 -14 -15 -21 -18 -15 -42 1 -31 19 8 13 46 15 46 2z m-2755
-27 c0 -10 -8 -20 -17 -22 -18 -3 -26 27 -11 42 12 11 28 0 28 -20z m1480 6
c-3 -5 -12 -10 -18 -10 -7 0 -6 4 3 10 19 12 23 12 15 0z m1703 -13 c2 -11 -3
-17 -17 -17 -23 0 -35 15 -26 31 10 15 39 6 43 -14z m160 0 c4 -21 -27 -35
-38 -17 -12 19 0 42 19 38 9 -2 17 -11 19 -21z m192 4 c0 -23 -16 -36 -25 -21
-9 14 1 40 15 40 5 0 10 -9 10 -19z m-3415 -16 c0 -10 -5 -20 -11 -22 -13 -4
-27 24 -18 38 9 15 29 4 29 -16z m3877 -7 c-15 -15 -26 -4 -18 18 5 13 9 15
18 6 9 -9 9 -15 0 -24z m98 1 c0 -10 -4 -19 -10 -19 -5 0 -10 12 -10 26 0 14
4 23 10 19 6 -3 10 -15 10 -26z m-3862 -11 c-2 -13 -7 -23 -13 -23 -5 0 -11
10 -13 23 -2 15 2 22 13 22 11 0 15 -7 13 -22z m3382 2 c0 -11 -4 -20 -9 -20
-14 0 -23 18 -16 30 10 17 25 11 25 -10z m-660 -4 c0 -8 -5 -18 -10 -21 -17
-11 -40 3 -34 20 8 19 44 20 44 1z m-360 -21 c0 -16 -27 -32 -37 -22 -3 4 -3
13 0 22 8 20 37 20 37 0z m1100 -5 c0 -11 -7 -20 -15 -20 -8 0 -15 9 -15 20 0
11 7 20 15 20 8 0 15 -9 15 -20z m-1270 -15 c-7 -8 -17 -15 -22 -15 -6 0 -5 7
2 15 7 8 17 15 22 15 6 0 5 -7 -2 -15z m1340 -15 c0 -11 -4 -20 -10 -20 -5 0
-10 9 -10 20 0 11 5 20 10 20 6 0 10 -9 10 -20z m-977 3 c9 -9 -12 -33 -29
-33 -8 0 -14 9 -14 20 0 19 28 28 43 13z m1343 -30 c-11 -11 -19 6 -11 24 8
17 8 17 12 0 3 -10 2 -21 -1 -24z m-296 -3 c0 -11 -4 -20 -10 -20 -5 0 -10 9
-10 20 0 11 5 20 10 20 6 0 10 -9 10 -20z m-803 -7 c4 -10 -2 -23 -15 -34 -12
-9 -22 -22 -22 -29 0 -6 -10 -10 -22 -8 -13 2 -23 10 -23 18 0 8 10 16 23 18
16 3 22 10 22 28 0 28 27 33 37 7z m873 -23 c0 -11 -4 -20 -10 -20 -5 0 -10 9
-10 20 0 11 5 20 10 20 6 0 10 -9 10 -20z m-470 -9 c0 -11 -5 -23 -11 -27 -14
-8 -29 14 -22 33 8 20 33 16 33 -6z m610 0 c0 -11 -4 -23 -10 -26 -6 -4 -10 5
-10 19 0 14 5 26 10 26 6 0 10 -9 10 -19z m-720 -10 c0 -6 -4 -13 -10 -16 -5
-3 -10 1 -10 9 0 9 5 16 10 16 6 0 10 -4 10 -9z m196 -27 c-5 -13 -10 -14 -18
-6 -6 6 -8 18 -4 28 5 13 10 14 18 6 6 -6 8 -18 4 -28z m447 11 c-3 -8 -9 -15
-14 -15 -10 0 -12 24 -3 33 11 11 24 -3 17 -18z m-373 -25 c0 -11 -4 -20 -10
-20 -5 0 -10 9 -10 20 0 11 5 20 10 20 6 0 10 -9 10 -20z m70 -25 c0 -14 -4
-25 -10 -25 -11 0 -14 33 -3 43 11 11 13 8 13 -18z m420 -9 c0 -8 -4 -18 -10
-21 -5 -3 -10 3 -10 14 0 12 5 21 10 21 6 0 10 -6 10 -14z m-350 -21 c0 -14
-4 -25 -10 -25 -11 0 -14 33 -3 43 11 11 13 8 13 -18z m70 -24 c0 -11 -4 -23
-10 -26 -6 -4 -10 5 -10 19 0 14 5 26 10 26 6 0 10 -9 10 -19z m-620 -42 c0
-10 -7 -19 -15 -19 -15 0 -21 31 -9 43 11 10 24 -3 24 -24z m682 -4 c-12 -22
-27 -2 -18 22 5 12 10 13 17 6 7 -7 8 -17 1 -28z m-842 10 c13 -16 6 -35 -15
-35 -18 0 -28 17 -21 35 7 19 20 19 36 0z m288 -7 c-4 -27 -23 -34 -32 -13 -8
21 1 35 20 35 10 0 14 -8 12 -22z m109 -4 c8 -20 -13 -42 -27 -28 -12 12 -3
44 11 44 5 0 12 -7 16 -16z m80 -38 c-4 -9 -11 -16 -17 -16 -11 0 -14 33 -3
44 11 10 26 -11 20 -28z m73 -8 c0 -7 -4 -19 -9 -27 -11 -17 -25 3 -17 24 7
18 26 20 26 3z m63 -45 c-3 -7 -9 -13 -14 -13 -11 0 -12 34 -2 43 9 10 22 -13
16 -30z m67 -12 c0 -11 -4 -23 -10 -26 -6 -4 -10 5 -10 19 0 14 5 26 10 26 6
0 10 -9 10 -19z m-515 -66 c0 -28 -29 -25 -33 3 -3 19 0 23 15 20 10 -2 18
-12 18 -23z m110 -10 c0 -10 -6 -20 -12 -22 -8 -3 -13 5 -13 22 0 17 5 25 13
23 6 -3 12 -13 12 -23z m95 -14 c0 -23 -16 -36 -25 -21 -9 14 1 40 15 40 5 0
10 -9 10 -19z m80 -20 c0 -11 -4 -22 -9 -25 -11 -7 -20 14 -13 32 7 19 22 14
22 -7z m70 -26 c0 -25 -14 -34 -24 -16 -8 12 3 41 15 41 5 0 9 -11 9 -25z
m-363 -110 c5 -16 -14 -38 -26 -31 -18 12 -13 48 6 44 9 -2 18 -7 20 -13z
m101 -17 c-5 -32 -28 -35 -28 -4 0 17 5 26 16 26 10 0 14 -7 12 -22z"/>
<path d="M13181 4605 c-1 -42 2 -56 9 -45 12 18 12 58 0 85 -6 14 -9 3 -9 -40z"/>
<path d="M17038 9523 c7 -3 16 -2 19 1 4 3 -2 6 -13 5 -11 0 -14 -3 -6 -6z"/>
<path d="M16978 9513 c7 -3 16 -2 19 1 4 3 -2 6 -13 5 -11 0 -14 -3 -6 -6z"/>
<path d="M16521 9466 c-12 -14 -9 -16 30 -15 24 1 69 4 99 9 52 7 53 7 14 9
-23 0 -61 4 -85 7 -34 5 -48 2 -58 -10z"/>
<path d="M16728 9473 c6 -2 18 -2 25 0 6 3 1 5 -13 5 -14 0 -19 -2 -12 -5z"/>
<path d="M7648 8543 c7 -3 16 -2 19 1 4 3 -2 6 -13 5 -11 0 -14 -3 -6 -6z"/>
<path d="M7718 8533 c7 -3 16 -2 19 1 4 3 -2 6 -13 5 -11 0 -14 -3 -6 -6z"/>
<path d="M21665 8365 c-22 -7 -31 -13 -20 -13 11 0 36 6 55 13 45 17 17 18
-35 0z"/>
<path d="M21588 8343 c6 -2 18 -2 25 0 6 3 1 5 -13 5 -14 0 -19 -2 -12 -5z"/>
<path d="M21465 8325 c-47 -12 -229 -53 -473 -107 -57 -12 -100 -24 -94 -26
20 -6 656 129 671 144 9 8 -56 2 -104 -11z"/>
<path d="M20548 8123 c7 -3 16 -2 19 1 4 3 -2 6 -13 5 -11 0 -14 -3 -6 -6z"/>
<path d="M20088 8023 c6 -2 18 -2 25 0 6 3 1 5 -13 5 -14 0 -19 -2 -12 -5z"/>
<path d="M20010 8010 c-23 -7 -23 -8 -3 -9 12 -1 25 4 28 9 3 6 5 10 3 9 -2
-1 -14 -5 -28 -9z"/>
<path d="M19918 7983 c7 -3 16 -2 19 1 4 3 -2 6 -13 5 -11 0 -14 -3 -6 -6z"/>
<path d="M19770 7955 c-25 -7 -36 -13 -25 -14 11 0 40 6 65 13 56 18 21 19
-40 1z"/>
<path d="M19658 7923 c6 -2 18 -2 25 0 6 3 1 5 -13 5 -14 0 -19 -2 -12 -5z"/>
<path d="M19575 7910 c-28 -7 -28 -8 -5 -9 14 0 32 4 40 9 17 11 8 11 -35 0z"/>
<path d="M19490 7890 c-20 -6 -21 -8 -5 -8 11 0 29 3 40 8 25 11 -1 11 -35 0z"/>
<path d="M19438 7873 c7 -3 16 -2 19 1 4 3 -2 6 -13 5 -11 0 -14 -3 -6 -6z"/>
<path d="M19340 7857 c-25 -6 -38 -12 -30 -14 8 -1 38 3 65 11 58 17 31 19
-35 3z"/>
<path d="M19258 7833 c7 -3 16 -2 19 1 4 3 -2 6 -13 5 -11 0 -14 -3 -6 -6z"/>
<path d="M19218 7823 c7 -3 16 -2 19 1 4 3 -2 6 -13 5 -11 0 -14 -3 -6 -6z"/>
<path d="M19100 7803 c-36 -9 -60 -17 -55 -19 6 -2 44 5 85 15 41 10 66 19 55
19 -11 0 -49 -7 -85 -15z"/>
<path d="M18922 7763 c-35 -8 -61 -17 -58 -20 6 -6 104 16 126 28 20 11 8 10
-68 -8z"/>
<path d="M18785 7729 c-22 -5 -73 -16 -113 -25 -40 -9 -71 -18 -69 -20 6 -6
211 38 222 48 5 4 7 8 5 7 -3 -1 -23 -5 -45 -10z"/>
<path d="M22540 7406 c-55 -20 -1062 -418 -1200 -476 -25 -10 -70 -28 -100
-40 -395 -157 -610 -248 -588 -250 4 0 47 16 95 36 48 19 108 42 133 51 25 8
106 39 180 68 230 90 385 148 530 200 41 15 116 42 165 61 50 19 94 34 97 34
4 0 19 5 35 12 15 6 36 13 46 15 11 2 28 10 40 18 12 8 30 15 40 15 10 0 29 7
42 16 14 9 25 13 25 10 0 -4 10 0 23 8 12 8 37 17 55 21 18 4 46 14 64 22 17
9 44 16 60 17 17 1 30 8 33 17 4 10 13 15 23 12 10 -2 34 7 55 21 21 14 44 26
52 26 8 0 16 4 19 9 3 4 41 23 85 41 44 18 82 39 85 47 7 18 -18 15 -94 -11z"/>
<path d="M23226 7131 c-3 -4 6 -6 19 -3 14 2 25 6 25 8 0 8 -39 4 -44 -5z"/>
<path d="M23090 7097 c-25 -6 -38 -12 -30 -14 8 -2 35 3 60 11 53 16 35 19
-30 3z"/>
<path d="M23018 7073 c7 -3 16 -2 19 1 4 3 -2 6 -13 5 -11 0 -14 -3 -6 -6z"/>
<path d="M22940 7060 l-25 -8 25 0 c14 0 34 3 45 8 l20 9 -20 -1 c-11 0 -31
-4 -45 -8z"/>
<path d="M22818 7023 c6 -2 18 -2 25 0 6 3 1 5 -13 5 -14 0 -19 -2 -12 -5z"/>
<path d="M22755 7010 l-20 -9 20 0 c11 0 27 4 35 9 13 9 13 10 0 9 -8 0 -24
-4 -35 -9z"/>
<path d="M20600 6625 c-14 -8 -20 -14 -15 -14 6 0 21 6 35 14 14 8 21 14 15
14 -5 0 -21 -6 -35 -14z"/>
<path d="M20466 6568 c-26 -15 -366 -153 -721 -294 -299 -118 -358 -143 -339
-144 7 0 40 9 75 19 75 23 244 69 449 122 82 21 131 38 113 38 -17 1 -43 -3
-56 -8 -14 -6 -28 -7 -32 -3 -6 7 5 13 187 102 256 125 362 179 353 179 -5 0
-19 -5 -29 -11z"/>
<path d="M20938 6533 c7 -3 16 -2 19 1 4 3 -2 6 -13 5 -11 0 -14 -3 -6 -6z"/>
<path d="M20708 6473 c7 -3 16 -2 19 1 4 3 -2 6 -13 5 -11 0 -14 -3 -6 -6z"/>
<path d="M20088 6313 c7 -3 16 -2 19 1 4 3 -2 6 -13 5 -11 0 -14 -3 -6 -6z"/>
<path d="M5032 6034 c-7 -8 -8 -14 -3 -14 10 0 25 19 20 25 -2 1 -10 -3 -17
-11z"/>
<path d="M5770 5819 c0 -5 5 -7 10 -4 6 3 10 8 10 11 0 2 -4 4 -10 4 -5 0 -10
-5 -10 -11z"/>
<path d="M23300 5340 c-9 -6 -10 -10 -3 -10 6 0 15 5 18 10 8 12 4 12 -15 0z"/>
<path d="M14756 5241 c-3 -5 3 -11 13 -14 14 -3 18 -1 14 9 -6 16 -19 18 -27
5z"/>
<path d="M8610 5011 c0 -6 4 -13 10 -16 6 -3 7 1 4 9 -7 18 -14 21 -14 7z"/>
<path d="M8806 4938 c3 -5 10 -6 15 -3 13 9 11 12 -6 12 -8 0 -12 -4 -9 -9z"/>
<path d="M10793 4179 c-1 -9 7 -19 18 -22 20 -5 26 7 9 18 -6 4 -8 10 -6 14 3
4 -1 8 -7 8 -7 0 -14 -8 -14 -18z"/>
<path d="M11217 4159 c7 -7 15 -10 18 -7 3 3 -2 9 -12 12 -14 6 -15 5 -6 -5z"/>
<path d="M11400 4155 c-14 -8 -20 -14 -14 -15 5 0 19 7 30 15 24 18 16 19 -16
0z"/>
<path d="M10946 4138 c3 -5 10 -6 15 -3 13 9 11 12 -6 12 -8 0 -12 -4 -9 -9z"/>
<path d="M18868 4133 c7 -3 16 -2 19 1 4 3 -2 6 -13 5 -11 0 -14 -3 -6 -6z"/>
<path d="M10788 4123 c7 -3 16 -2 19 1 4 3 -2 6 -13 5 -11 0 -14 -3 -6 -6z"/>
<path d="M10810 4106 c0 -2 7 -6 15 -10 8 -3 15 -1 15 4 0 6 -7 10 -15 10 -8
0 -15 -2 -15 -4z"/>
<path d="M11560 4080 c-8 -5 -12 -12 -9 -15 4 -3 12 1 19 10 14 17 11 19 -10
5z"/>
<path d="M10688 4053 c7 -3 16 -2 19 1 4 3 -2 6 -13 5 -11 0 -14 -3 -6 -6z"/>
<path d="M18618 4053 c7 -3 16 -2 19 1 4 3 -2 6 -13 5 -11 0 -14 -3 -6 -6z"/>
<path d="M18568 4033 c7 -3 16 -2 19 1 4 3 -2 6 -13 5 -11 0 -14 -3 -6 -6z"/>
<path d="M10660 3988 c0 -6 3 -8 7 -5 3 4 13 1 22 -6 14 -11 14 -10 2 6 -15
20 -31 22 -31 5z"/>
<path d="M18285 3954 c-22 -8 -47 -17 -55 -21 -8 -3 -23 -7 -32 -8 -10 -1 -21
-5 -25 -10 -5 -4 3 -4 16 0 16 5 21 4 17 -4 -10 -16 0 -14 18 4 8 8 25 16 38
17 13 2 25 6 28 9 3 3 19 11 35 17 17 6 23 10 15 11 -8 0 -33 -7 -55 -15z"/>
<path d="M18136 3902 c-3 -4 4 -9 15 -9 23 -2 25 3 4 10 -8 4 -16 3 -19 -1z"/>
<path d="M18060 3880 c-17 -11 10 -19 34 -10 19 6 19 7 -1 12 -11 3 -26 2 -33
-2z"/>
<path d="M17966 3851 c-32 -11 -46 -20 -37 -25 15 -10 61 1 61 14 0 6 12 10
26 10 14 0 23 4 19 10 -8 12 -9 12 -69 -9z"/>
<path d="M17895 3820 c3 -5 8 -10 11 -10 2 0 4 5 4 10 0 6 -5 10 -11 10 -5 0
-7 -4 -4 -10z"/>
<path d="M17570 3720 c0 -5 4 -10 9 -10 6 0 13 5 16 10 3 6 -1 10 -9 10 -9 0
-16 -4 -16 -10z"/>
<path d="M17473 3698 c-13 -6 -23 -15 -23 -21 0 -5 6 -4 14 2 8 7 27 16 43 21
19 6 22 8 8 8 -11 1 -30 -4 -42 -10z"/>
<path d="M16440 3370 c-13 -9 -13 -10 0 -10 8 0 22 5 30 10 13 9 13 10 0 10
-8 0 -22 -5 -30 -10z"/>
<path d="M13200 3314 c-19 -14 -98 -64 -175 -111 -77 -47 -205 -129 -285 -183
-185 -124 -289 -176 -475 -239 -255 -84 -424 -112 -690 -113 -257 0 -382 25
-461 94 -19 17 -34 25 -34 20 0 -6 5 -14 11 -18 6 -3 8 -16 5 -29 -4 -15 0
-27 12 -36 14 -11 15 -11 5 1 -7 8 -13 19 -13 25 0 5 5 2 11 -8 6 -9 15 -15
21 -11 6 4 5 -3 -2 -16 -11 -20 -10 -22 5 -16 15 5 16 4 6 -8 -9 -11 -9 -16 0
-22 7 -4 10 -3 7 2 -3 5 0 14 7 21 10 10 16 9 24 -1 6 -7 7 -16 3 -20 -4 -4
-2 -7 3 -6 20 4 35 0 35 -11 0 -5 -5 -7 -12 -3 -6 4 -8 3 -5 -4 4 -5 15 -8 26
-5 11 3 24 -3 32 -14 8 -10 26 -18 41 -18 15 1 25 -2 22 -6 -2 -4 3 -10 12
-13 22 -8 26 -8 19 4 -9 14 9 12 23 -2 9 -9 15 -10 20 -2 8 12 55 26 47 14 -3
-4 3 -14 12 -21 12 -10 14 -10 9 -1 -10 17 5 15 32 -4 19 -13 25 -12 24 6 0 3
22 5 50 5 27 0 52 3 55 8 2 4 11 3 19 -4 8 -6 14 -8 14 -4 0 4 7 2 15 -5 12
-10 15 -10 15 1 0 12 2 12 9 0 6 -9 10 -10 12 -2 3 7 15 12 29 13 14 1 31 6
39 12 11 8 13 8 7 -1 -4 -7 -2 -13 3 -13 6 0 11 5 11 10 0 7 6 7 19 1 15 -8
20 -7 25 5 3 9 12 14 20 11 7 -3 19 0 26 6 10 9 11 9 5 -1 -5 -10 -1 -13 16
-10 13 2 26 6 29 10 3 4 20 8 38 10 18 1 38 8 43 14 5 7 19 10 29 7 11 -3 20
-1 20 5 0 5 12 10 28 11 55 1 62 4 51 17 -8 9 -5 11 10 7 12 -3 18 -10 15 -15
-7 -10 31 9 57 29 8 7 25 14 37 16 12 2 25 6 28 10 11 11 26 8 19 -3 -3 -5 -2
-10 2 -10 5 0 13 10 18 23 11 24 41 30 64 13 12 -9 12 -7 2 12 -7 13 -10 26
-7 30 3 3 6 0 6 -7 0 -9 5 -9 21 -1 11 6 28 10 37 8 9 -2 25 3 34 11 14 12 15
18 6 30 -9 12 -7 12 7 -1 17 -16 19 -15 37 8 19 24 46 35 32 12 -4 -7 -3 -8 5
-4 8 5 9 12 2 20 -7 9 -3 12 17 11 27 0 53 14 46 26 -2 4 3 10 12 13 10 4 13
2 8 -6 -5 -7 -3 -8 5 -4 7 5 10 13 8 20 -3 7 4 13 14 13 11 1 17 -2 14 -8 -12
-18 7 -8 25 13 11 14 14 25 8 29 -5 4 -3 9 7 12 9 4 13 3 10 -2 -3 -5 -1 -12
4 -16 6 -3 15 3 21 14 6 12 16 18 25 15 10 -4 15 0 15 11 0 9 4 14 10 10 5 -3
18 3 30 15 11 11 28 20 39 20 18 0 52 30 35 30 -12 0 19 20 31 20 6 0 3 -5 -5
-10 -20 -13 -4 -13 21 1 11 5 17 14 14 18 -2 5 3 8 13 7 9 0 16 4 15 10 -1 6
10 17 25 24 15 7 34 16 42 21 8 5 25 14 38 19 13 5 21 14 17 19 -3 6 4 8 15 6
11 -2 18 0 15 5 -3 5 3 11 14 15 10 3 21 15 24 25 3 11 1 18 -3 15 -5 -3 -12
0 -16 6 -4 7 -3 9 3 6 12 -7 30 10 35 33 2 8 8 18 13 22 7 5 7 8 0 7 -5 0 -26
-11 -45 -25z m-715 -514 c-3 -5 -12 -10 -18 -10 -7 0 -6 4 3 10 19 12 23 12
15 0z"/>
<path d="M8180 3311 c0 -6 4 -13 10 -16 6 -3 7 1 4 9 -7 18 -14 21 -14 7z"/>
<path d="M16270 3310 c0 -5 7 -10 16 -10 8 0 12 5 9 10 -3 6 -10 10 -16 10 -5
0 -9 -4 -9 -10z"/>
<path d="M16220 3301 c-8 -4 -41 -13 -72 -20 l-57 -12 5 -37 5 -37 -22 25 -22
25 8 -25 c13 -46 25 -50 83 -28 39 14 52 24 48 35 -4 9 8 28 31 49 35 31 31
46 -7 25z m15 -11 c-3 -5 -12 -10 -18 -10 -7 0 -6 4 3 10 19 12 23 12 15 0z"/>
<path d="M11410 2559 c0 -5 5 -7 10 -4 6 3 10 8 10 11 0 2 -4 4 -10 4 -5 0
-10 -5 -10 -11z"/>
</g>
</svg>
