<svg xmlns="http://www.w3.org/2000/svg" viewBox="0 0 512 512" id="currencynote"><circle cx="46" cy="286" r="7.5" fill="#000000" class="color000000 svgShape"></circle><circle cx="406" cy="286" r="7.5" fill="#000000" class="color000000 svgShape"></circle><rect width="437" height="242" x="67.5" y="105" fill="#5f19ac" rx="30" class="color19ac66 svgShape"></rect><rect width="437" height="242" x="52.5" y="120" fill="#5b17a4" rx="30" class="color17a454 svgShape"></rect><rect width="437" height="242" x="37.5" y="135" fill="#5f19ac" rx="30" class="color19ac66 svgShape"></rect><rect width="437" height="242" x="22.5" y="150" fill="#5b17a4" rx="30" class="color17a454 svgShape"></rect><rect width="437" height="242" x="7.5" y="165" fill="#5f259e" rx="30" class="color138b4c svgShape"></rect><path fill="#5f19ac" d="M384.5,407H67.5a60,60,0,0,0-60-60V225a60,60,0,0,0,60-60h317a60,60,0,0,0,60,60V347A60,60,0,0,0,384.5,407Z" class="color19ac66 svgShape"></path><path fill="#5f259e" d="M226,211a85,85,0,1,0,60.1,24.9A84.41,84.41,0,0,0,226,211Z" class="color138b4c svgShape"></path><path fill="#9f47fe" d="M226,378.5a92.49,92.49,0,1,1,65.41-27.09A91.9,91.9,0,0,1,226,378.5Z" class="colorfed947 svgShape"></path><path fill="#9330fe" d="M291.41,220.59A91.9,91.9,0,0,0,226,193.5a94.18,94.18,0,0,0-12.5.85,92.5,92.5,0,0,1,0,183.3,94.18,94.18,0,0,0,12.5.85,92.5,92.5,0,0,0,65.41-157.91Z" class="colorfecc30 svgShape"></path><path fill="#9132f8" d="M226,386a100,100,0,1,1,70.71-29.29A99.34,99.34,0,0,1,226,386Zm0-185a85,85,0,1,0,60.1,24.9A84.41,84.41,0,0,0,226,201Z" class="colorf8be32 svgShape"></path><path fill="#ffffff" d="M216.41,302.13H194.13a7.5,7.5,0,0,1,0-15h22.28a19.45,19.45,0,1,0,0-38.9H200.87a7.5,7.5,0,0,1,0-15h15.54a34.45,34.45,0,1,1,0,68.9Z" class="colorffffff svgShape"></path><path fill="#ffffff" d="M257.87 248.23H194.13a7.5 7.5 0 0 1 0-15h63.74a7.5 7.5 0 0 1 0 15zM257.87 275.18H194.13a7.5 7.5 0 0 1 0-15h63.74a7.5 7.5 0 0 1 0 15zM242.33 348.77a7.53 7.53 0 0 1-5.22-2.11L188.91 300a7.5 7.5 0 0 1 10.43-10.78l48.2 46.64a7.5 7.5 0 0 1-5.21 12.89z" class="colorffffff svgShape"></path><circle cx="46" cy="286" r="7.5" fill="#9132f8" class="colorf8be32 svgShape"></circle><circle cx="406" cy="286" r="7.5" fill="#9132f8" class="colorf8be32 svgShape"></circle></svg>