<?xml version="1.0" standalone="no"?>
<!DOCTYPE svg PUBLIC "-//W3C//DTD SVG 20010904//EN"
 "http://www.w3.org/TR/2001/REC-SVG-20010904/DTD/svg10.dtd">
<svg version="1.0" xmlns="http://www.w3.org/2000/svg"
 width="1046.000000pt" height="954.000000pt" viewBox="0 0 1046.000000 954.000000"
 preserveAspectRatio="xMidYMid meet">

<g transform="translate(0.000000,954.000000) scale(0.100000,-0.100000)"
fill="#000000" stroke="none">
<path d="M5975 8934 c-59 -30 -120 -104 -146 -177 -10 -28 -17 -36 -29 -31
-87 37 -121 35 -202 -15 -27 -17 -53 -31 -57 -31 -4 0 -21 20 -39 45 -53 76
-118 106 -183 85 -70 -23 -139 -118 -139 -192 0 -15 -8 -18 -51 -18 -106 0
-169 -69 -169 -186 l0 -54 -43 0 c-57 0 -77 -22 -77 -82 0 -63 22 -109 73
-154 24 -22 47 -48 50 -58 7 -17 47 -214 61 -298 4 -21 10 -39 14 -42 5 -3 73
2 153 11 100 11 245 16 479 17 337 0 475 -10 492 -37 12 -20 65 -255 82 -363
12 -78 25 -219 26 -296 0 -11 178 -10 184 1 9 13 -40 41 -86 49 l-41 7 25 30
c14 17 39 57 55 90 102 202 121 231 137 215 13 -13 113 -13 121 0 13 21 50 9
71 -23 42 -64 49 -101 36 -177 -7 -39 -12 -112 -12 -163 0 -85 2 -97 29 -138
33 -53 88 -83 168 -92 50 -6 54 -5 67 21 26 51 56 195 56 269 0 67 2 73 20 73
11 0 41 -19 66 -42 54 -49 61 -46 80 46 23 111 5 229 -43 287 -43 51 -94 69
-200 69 -91 0 -187 15 -210 33 -7 5 -13 27 -13 49 0 50 -31 95 -78 115 -37 15
-37 15 -16 120 5 26 2 36 -19 55 l-26 24 30 43 c46 69 34 135 -33 182 -24 18
-45 23 -85 23 l-53 -1 0 38 c0 42 -30 85 -77 109 -15 8 -46 34 -68 57 -34 35
-48 43 -93 49 -44 5 -52 10 -46 23 42 100 47 158 19 250 -15 47 -33 79 -67
117 -73 80 -131 100 -193 68z"/>
<path d="M2735 8036 c-14 -20 -14 -52 -5 -262 5 -132 10 -336 10 -454 0 -118
3 -259 7 -313 6 -93 8 -100 31 -110 21 -10 27 -9 36 7 6 10 20 30 30 43 21 27
21 33 10 353 -2 69 -8 259 -12 422 -8 267 -10 300 -27 318 -24 27 -61 25 -80
-4z"/>
<path d="M5790 7624 c0 -5 38 -21 85 -35 61 -19 85 -23 85 -14 0 7 -17 21 -37
31 -42 19 -133 32 -133 18z"/>
<path d="M5305 7601 c-42 -19 -97 -71 -76 -71 16 0 151 73 151 83 0 12 -33 7
-75 -12z"/>
<path d="M5295 7375 c-21 -20 -25 -34 -25 -83 0 -49 4 -64 25 -86 33 -36 70
-35 90 4 28 54 13 160 -25 180 -28 15 -38 12 -65 -15z m35 -50 c0 -18 -5 -25
-20 -25 -35 0 -24 45 13 49 4 1 7 -10 7 -24z"/>
<path d="M5844 7382 c-48 -33 -61 -147 -23 -196 60 -76 144 38 108 146 -15 46
-56 70 -85 50z m22 -57 c6 -16 -12 -45 -27 -45 -10 0 -12 44 -2 53 11 11 23 8
29 -8z"/>
<path d="M4977 7338 c-14 -10 17 -38 42 -38 9 0 29 -7 45 -15 31 -16 56 -20
56 -7 0 12 -49 62 -63 64 -37 4 -69 3 -80 -4z"/>
<path d="M5962 7005 c-14 -52 -55 -83 -142 -109 -84 -25 -169 -21 -214 9 -53
36 -59 31 -31 -25 32 -64 80 -90 162 -90 140 1 235 81 250 211 7 62 -9 64 -25
4z"/>
<path d="M2750 6706 c0 -2 6 -19 14 -38 9 -21 12 -50 9 -75 -3 -25 -1 -43 6
-47 6 -4 11 -25 11 -47 0 -23 7 -47 15 -55 20 -21 19 -27 -12 -65 l-28 -33 4
-190 c1 -104 7 -200 11 -212 11 -28 58 -37 88 -18 22 14 26 27 23 74 -1 14 -3
124 -5 245 -1 121 -3 259 -4 307 l-2 88 -38 19 c-21 11 -44 27 -51 35 -12 14
-41 23 -41 12z"/>
<path d="M4990 6683 c-8 -3 -31 -20 -50 -37 -81 -73 -538 -326 -587 -326 -84
1 -308 54 -505 121 -119 40 -389 142 -460 172 -35 16 -37 16 -50 -6 -8 -12
-18 -47 -21 -77 -3 -30 -11 -93 -17 -140 -14 -107 -13 -412 1 -421 6 -3 86
-16 177 -28 92 -12 192 -26 222 -31 89 -14 208 -29 315 -40 56 -6 103 -16 107
-23 14 -22 199 -337 388 -662 131 -225 257 -440 298 -508 19 -32 52 -72 74
-87 47 -34 53 -32 113 44 52 65 126 106 206 113 48 5 63 2 79 -12 28 -25 25
-53 -10 -109 l-31 -48 47 -68 c36 -54 45 -74 40 -94 -12 -50 -123 -167 -215
-226 l-23 -16 67 -119 c66 -117 132 -216 175 -263 16 -19 27 -22 48 -17 68 17
68 46 0 178 -85 167 -80 153 -63 167 25 21 85 21 182 0 62 -13 131 -20 208
-20 l115 0 0 -29 c0 -31 -40 -218 -67 -316 -9 -33 -17 -82 -19 -110 -1 -27 -7
-70 -13 -95 -32 -126 -36 -168 -18 -205 34 -70 71 -35 91 86 4 21 13 50 21 65
8 16 18 54 24 84 37 204 81 427 98 486 14 51 14 51 61 58 26 3 85 18 132 33
47 14 94 26 105 25 11 -1 29 7 40 18 11 10 37 26 57 35 33 13 36 18 29 38 -11
27 -54 121 -111 242 -68 144 -100 216 -100 225 0 5 39 29 88 55 124 67 478
306 620 420 l64 50 -5 50 c-11 107 -79 343 -160 555 -22 58 -134 320 -167 393
-9 17 -56 55 -134 105 -174 113 -340 212 -355 212 -7 0 -67 -55 -134 -123
-150 -152 -212 -207 -232 -207 -27 0 -197 180 -264 280 -35 52 -68 98 -75 102
-6 4 -77 8 -158 8 -146 0 -148 0 -164 25 -16 25 -48 31 -84 18z m10 -815 c0
-40 -5 -120 -10 -178 -26 -268 -42 -452 -46 -525 -12 -217 -27 -366 -38 -362
-10 3 -89 136 -181 302 -31 57 -57 103 -244 434 -44 79 -81 145 -81 147 0 1
-18 32 -41 69 -22 37 -38 73 -35 81 4 10 23 14 63 14 53 0 209 22 358 50 96
19 208 37 233 39 21 1 22 -3 22 -71z m1408 -60 c6 -18 25 -86 42 -151 36 -129
34 -140 -23 -151 -17 -4 -69 -18 -114 -31 -46 -14 -120 -36 -166 -50 -46 -14
-89 -25 -95 -25 -25 0 -9 28 74 130 47 58 122 151 166 208 45 56 87 102 94
102 7 0 17 -15 22 -32z m-573 -256 c17 -12 40 -53 65 -117 29 -74 35 -82 54
-66 33 27 41 8 41 -95 0 -54 4 -111 8 -125 8 -24 5 -27 -80 -66 -117 -55 -206
-84 -273 -90 -55 -5 -56 -5 -82 33 -14 22 -35 57 -45 78 l-18 40 -62 -3 c-92
-4 -103 2 -103 53 0 36 7 51 41 90 53 59 105 90 199 114 l75 20 -3 55 c-2 37
1 57 9 63 31 19 155 30 174 16z"/>
<path d="M2013 5861 c-104 -27 -204 -105 -256 -200 -35 -66 -61 -181 -54 -245
6 -65 40 -159 72 -206 28 -41 105 -102 164 -131 55 -26 61 -24 54 15 -6 37 13
76 56 113 l25 22 -21 21 c-12 11 -27 38 -33 60 -9 34 -8 45 10 80 11 22 34 50
51 62 28 21 30 27 25 66 -5 36 -2 46 22 72 15 17 45 37 67 44 36 13 40 17 37
43 -4 37 29 79 69 88 16 4 28 12 26 18 -2 7 -33 27 -68 44 -51 26 -82 34 -140
38 -41 2 -88 0 -106 -4z"/>
<path d="M3150 5773 c-40 -14 -98 -48 -125 -73 -30 -27 -30 -28 -215 -34 -203
-7 -290 -21 -373 -61 -176 -83 -256 -316 -257 -752 -1 -156 2 -186 21 -243 26
-79 71 -149 137 -212 l49 -47 17 -113 c9 -62 21 -131 26 -153 5 -22 14 -69 20
-105 6 -36 15 -85 20 -110 5 -25 14 -74 20 -110 6 -36 16 -83 21 -105 5 -22
25 -119 44 -215 19 -96 46 -229 60 -295 13 -66 29 -145 35 -175 6 -30 15 -71
20 -90 8 -33 18 -81 41 -205 6 -27 14 -66 19 -85 11 -43 25 -108 39 -180 6
-30 18 -89 26 -130 47 -232 60 -304 86 -475 47 -315 17 -674 -68 -825 -11 -19
-29 -57 -41 -83 l-22 -49 33 -30 c44 -41 177 -119 262 -153 58 -23 89 -29 182
-32 108 -5 112 -6 118 -30 3 -13 3 -56 -1 -95 l-7 -70 799 5 c963 6 1186 18
1297 67 139 62 198 265 162 565 -3 27 -51 111 -83 148 -58 63 -354 325 -454
401 -21 16 -38 34 -38 42 0 7 14 40 30 72 63 124 30 280 -110 532 -84 150
-220 419 -220 435 0 9 -8 29 -19 43 -10 15 -27 47 -38 72 -11 25 -27 51 -36
59 -9 7 -54 17 -99 22 -151 17 -291 48 -284 63 2 6 16 37 30 70 l27 58 -108
-7 c-59 -4 -171 -11 -248 -14 l-139 -6 -7 -40 c-22 -128 -215 -510 -258 -510
-25 0 -316 443 -394 600 -41 85 -61 164 -53 213 12 78 38 142 76 194 45 59 44
44 9 198 -28 124 -28 124 -97 143 -45 12 -73 29 -116 68 -46 42 -59 49 -71 39
-18 -15 -33 -6 -46 27 -13 34 -50 28 -60 -10 -13 -50 -24 -56 -72 -42 -79 24
-122 46 -160 83 -124 119 -89 219 80 232 l74 5 -67 105 c-36 58 -79 125 -95
149 -35 53 -36 77 -8 162 39 119 77 181 199 329 65 80 214 230 226 230 2 0 4
-27 4 -59 0 -33 4 -71 10 -85 13 -35 87 -106 130 -124 57 -24 140 -20 191 10
114 67 147 173 94 302 l-24 58 32 -6 c39 -8 180 -77 263 -128 66 -41 71 -51
124 -235 24 -86 37 -87 101 -11 57 67 91 84 133 67 17 -7 49 -26 70 -41 49
-35 97 -37 129 -5 l22 22 -34 5 c-49 7 -72 43 -77 120 -4 73 -19 123 -40 140
-31 27 -86 16 -151 -28 -67 -45 -97 -52 -111 -24 -5 9 -15 53 -22 96 -12 76
-16 92 -46 163 -46 104 -170 214 -299 262 -33 13 -70 27 -83 32 -24 9 -206 11
-232 2z m111 -532 c21 -22 29 -39 29 -66 0 -49 -44 -95 -92 -95 -67 0 -115 82
-82 139 34 58 99 68 145 22z m934 -2543 c7 -57 16 -141 20 -188 l7 -85 -94
-22 c-126 -30 -227 -46 -263 -42 l-30 4 50 55 c70 77 132 160 200 265 63 98
86 127 92 121 3 -2 11 -51 18 -108z"/>
<path d="M3529 5004 c-26 -8 -50 -21 -53 -30 -5 -13 -2 -15 16 -10 13 4 45 11
71 16 54 11 67 17 67 31 0 13 -47 10 -101 -7z"/>
<path d="M3589 4807 c-16 -35 5 -100 42 -131 90 -76 137 38 55 132 -27 31 -83
31 -97 -1z m89 -29 c5 -26 -34 -23 -41 3 -4 16 -1 20 16 17 12 -2 23 -11 25
-20z"/>
<path d="M2926 4753 c-41 -41 -76 -102 -76 -130 1 -13 8 -9 28 17 15 19 46 56
70 82 23 27 42 53 42 58 0 21 -28 9 -64 -27z"/>
<path d="M3080 4581 c-16 -30 -12 -67 11 -116 26 -56 62 -85 104 -85 42 0 60
22 59 71 -3 95 -138 196 -174 130z m98 -49 c3 -19 -1 -23 -15 -20 -10 2 -19
14 -21 26 -3 19 1 23 15 20 10 -2 19 -14 21 -26z"/>
<path d="M3601 4267 c-13 -26 -38 -59 -55 -71 -63 -48 -183 -74 -283 -61 -52
6 -62 12 -100 53 -49 54 -57 38 -15 -29 39 -61 83 -96 144 -114 69 -20 102
-19 179 7 84 28 105 42 135 94 21 35 25 53 22 106 l-3 63 -24 -48z"/>
<path d="M4850 4257 c0 -28 120 -152 159 -165 28 -9 6 26 -35 57 -25 19 -59
54 -76 78 -32 44 -48 54 -48 30z"/>
<path d="M4010 4239 c0 -14 10 -34 21 -45 22 -19 22 -19 14 6 -4 14 -14 34
-21 45 -13 19 -14 18 -14 -6z"/>
<path d="M4810 4200 c0 -35 147 -166 166 -148 5 5 -152 168 -162 168 -2 0 -4
-9 -4 -20z"/>
<path d="M4040 4163 c0 -5 7 -21 16 -38 11 -20 17 -59 18 -121 1 -78 -2 -95
-18 -113 -11 -12 -24 -21 -31 -21 -19 0 -63 53 -84 103 -22 51 -45 65 -32 19
15 -51 50 -110 78 -130 35 -24 73 -14 94 25 17 32 17 199 0 216 -6 6 -11 24
-11 39 0 18 -5 28 -15 28 -8 0 -15 -3 -15 -7z"/>
<path d="M4767 4154 c-12 -13 25 -65 74 -104 49 -39 69 -48 69 -32 0 4 -25 34
-55 67 -30 33 -55 63 -55 68 0 9 -24 9 -33 1z"/>
<path d="M2628 4129 c-22 -24 -11 -30 48 -24 27 2 62 4 79 5 27 0 28 1 12 17
-25 25 -117 26 -139 2z"/>
<path d="M4727 4103 c-4 -3 -7 -12 -7 -19 0 -18 87 -100 125 -118 18 -9 38
-22 45 -31 7 -8 19 -15 27 -15 13 0 13 3 3 15 -7 8 -18 15 -25 15 -7 0 -47 36
-88 80 -40 44 -77 77 -80 73z"/>
<path d="M4685 4039 c-7 -11 13 -38 59 -79 30 -25 106 -74 106 -67 0 4 -152
157 -156 157 -2 0 -6 -5 -9 -11z"/>
<path d="M4640 3983 c1 -10 9 -27 18 -39 21 -25 122 -97 128 -91 5 5 -129 147
-139 147 -4 0 -7 -8 -7 -17z"/>
<path d="M4594 3929 c-8 -14 54 -78 106 -107 22 -12 40 -21 40 -20 0 5 -129
138 -134 138 -3 0 -8 -5 -12 -11z"/>
<path d="M4550 3877 c0 -17 53 -66 110 -101 44 -27 43 -26 -25 43 -70 72 -85
82 -85 58z"/>
<path d="M4819 3830 c13 -11 27 -20 32 -20 18 0 8 10 -23 25 l-33 16 24 -21z"/>
<path d="M4755 3791 c3 -6 20 -18 37 -27 16 -9 27 -11 23 -5 -3 6 -20 18 -37
27 -16 9 -27 11 -23 5z"/>
<path d="M4715 3740 c3 -5 8 -10 11 -10 2 0 4 5 4 10 0 6 -5 10 -11 10 -5 0
-7 -4 -4 -10z"/>
<path d="M4750 3721 c0 -9 48 -36 54 -30 3 2 -9 12 -25 21 -16 9 -29 14 -29 9z"/>
<path d="M5260 3135 c0 -8 2 -15 4 -15 2 0 6 7 10 15 3 8 1 15 -4 15 -6 0 -10
-7 -10 -15z"/>
<path d="M5321 3134 c0 -11 3 -14 6 -6 3 7 2 16 -1 19 -3 4 -6 -2 -5 -13z"/>
<path d="M5702 3135 c-7 -8 -28 -15 -47 -15 -19 0 -36 -3 -38 -7 -5 -8 -40
-188 -73 -368 -9 -49 -21 -108 -26 -130 -28 -115 -20 -155 33 -155 36 0 57 22
64 68 3 20 10 53 15 72 5 19 17 78 25 131 15 91 14 98 -2 128 -18 31 -18 32 5
51 12 10 22 28 22 40 0 12 5 31 12 43 6 12 13 39 14 61 2 22 13 49 24 61 20
21 18 35 -4 35 -6 -1 -17 -7 -24 -15z"/>
<path d="M3545 3080 l-40 -5 40 -8 c57 -10 145 -9 145 2 0 11 -90 18 -145 11z"/>
<path d="M4838 2939 c-3 -49 3 -66 20 -56 9 7 2 107 -8 107 -4 0 -10 -23 -12
-51z"/>
<path d="M4907 2974 c-12 -13 -7 -70 8 -90 11 -15 15 -16 16 -4 4 51 -10 108
-24 94z"/>
<path d="M4977 2964 c-9 -9 -9 -57 -1 -78 11 -29 34 -6 27 27 -7 41 -17 59
-26 51z"/>
<path d="M5316 2954 c-7 -25 7 -77 22 -82 9 -3 11 8 6 40 -8 50 -20 68 -28 42z"/>
<path d="M5045 2948 c-10 -24 -2 -71 13 -76 14 -4 17 55 2 78 -8 12 -10 12
-15 -2z"/>
<path d="M5104 2943 c-8 -12 -7 -24 3 -45 25 -50 43 -23 27 40 -8 26 -15 28
-30 5z"/>
<path d="M5176 2952 c-8 -13 4 -71 15 -78 19 -12 28 7 17 39 -13 39 -24 52
-32 39z"/>
<path d="M5247 2953 c-19 -19 0 -83 25 -83 9 0 10 35 2 68 -6 22 -15 27 -27
15z"/>
<path d="M7270 1265 c-14 -7 -62 -24 -106 -36 l-81 -23 -7 -90 c-8 -104 -12
-99 109 -162 39 -21 116 -66 172 -100 189 -117 241 -136 413 -153 100 -9 140
-2 140 25 0 25 -127 146 -210 200 -41 27 -91 61 -111 77 -20 15 -44 27 -53 27
-10 0 -26 5 -37 10 -19 10 -145 173 -168 218 -13 25 -26 27 -61 7z"/>
</g>
</svg>
