<svg xmlns="http://www.w3.org/2000/svg" viewBox="0 0 64 64" id="OnlinePay"><path fill="#ffffff" d="M43.17 13.17H44V7a4 4 0 0 0-4-4H12a4 4 0 0 0-4 4v52a4 4 0 0 0 4 4h28a4 4 0 0 0 4-4v-8.19h-.83a18.83 18.83 0 0 1 0-37.66ZM26 53a3 3 0 1 1-3 3 3 3 0 0 1 3-3Z" class="colore6e7e8 svgShape"></path><circle cx="26" cy="56" r="3" fill="#5f259e" class="color00459a svgShape"></circle><path fill="#7800fb" d="M62 32a18.83 18.83 0 0 1-18 18.81h-.83a18.83 18.83 0 0 1 0-37.66H44A18.83 18.83 0 0 1 62 32Z" class="colorfbcb00 svgShape"></path><path d="M31 56a5 5 0 1 0-5 5 5 5 0 0 0 5-5Zm-5 1a1 1 0 1 1 1-1 1 1 0 0 1-1 1ZM18 6h16v4H18z" fill="#000000" class="color000000 svgShape"></path><path d="M46 11.39V7a6 6 0 0 0-6-6H12a6 6 0 0 0-6 6v52a6 6 0 0 0 6 6h28a6 6 0 0 0 6-6v-6.39a20.8 20.8 0 0 0 0-41.22ZM40 61H12a2 2 0 0 1-2-2V7a2 2 0 0 1 2-2h28a2 2 0 0 1 2 2v4.23a20.8 20.8 0 0 0 0 41.54V59a2 2 0 0 1-2 2Zm3.17-12.17A16.83 16.83 0 1 1 60 32a16.84 16.84 0 0 1-16.83 16.83Z" fill="#000000" class="color000000 svgShape"></path><path d="M46.69 30h-7a1.06 1.06 0 0 1-1.06-1.06V25.2a1.07 1.07 0 0 1 1.06-1.06h11.15v-4h-5.67v-2.38h-4v2.38h-1.51a5.07 5.07 0 0 0-5.06 5.06v3.74A5.07 5.07 0 0 0 39.66 34h7a1.05 1.05 0 0 1 1.05 1.06v3.74a1.06 1.06 0 0 1-1.05 1.06H35.51v4h5.66v2.38h4v-2.38h1.52a5.06 5.06 0 0 0 5.05-5.06v-3.74A5.06 5.06 0 0 0 46.69 30Z" fill="#000000" class="color000000 svgShape"></path></svg>